<svg width="1384" height="484" viewBox="0 0 1384 484" fill="none" xmlns="http://www.w3.org/2000/svg">
<ellipse cx="132.5" cy="196" rx="131.5" ry="144" fill="#8D31B9"/>
<ellipse cx="1159" cy="196" rx="225" ry="196" fill="#8D31B9"/>
<rect x="1.41699" y="1.97028" width="1383" height="282" transform="rotate(0.168229 1.41699 1.97028)" fill="#8D31B9"/>
<path d="M1384 369C1384 345.091 1357.95 322.121 1311.36 304.957C1264.78 287.792 1201.32 277.781 1134.44 277.044C1067.55 276.307 1002.49 284.902 953.031 301.009C903.576 317.115 873.612 339.468 869.489 363.331C865.366 387.195 887.407 410.695 930.942 428.852C974.477 447.01 1036.09 458.399 1102.72 460.607C1169.35 462.815 1235.77 455.668 1287.91 440.681C1340.05 425.694 1373.81 404.043 1382.04 380.316L1126.5 369H1384Z" fill="white"/>
<ellipse cx="212.5" cy="340" rx="131.5" ry="92" fill="white"/>
<ellipse cx="510" cy="196" rx="266" ry="131" fill="#8D31B9"/>
<path d="M776 483.794C567.5 135.794 998.125 286.436 925.5 286.436C852.875 286.436 413 352.797 413 301.987C413 251.177 634.5 312.243 634.5 259.743C970.5 281.743 539.5 424.794 776 483.794Z" fill="white"/>
<ellipse cx="869.5" cy="186.5" rx="192.5" ry="154.5" fill="#8D31B9"/>
<rect x="1116" y="332" width="176" height="77" fill="white"/>
</svg>
