<svg width="790" height="583" viewBox="0 0 790 583" fill="none" xmlns="http://www.w3.org/2000/svg">
<ellipse cx="392" cy="214" rx="392" ry="214" fill="#5FA329"/>
<path d="M178.412 117.5C179.402 117.5 179.897 117.905 179.897 118.715V119.84C179.897 120.65 179.402 121.055 178.412 121.055H177.242L167.252 148.01C167.012 148.67 166.532 149 165.812 149H164.462C163.742 149 163.262 148.67 163.022 148.01L153.032 121.055H151.862C150.902 121.055 150.422 120.65 150.422 119.84V118.715C150.422 117.905 150.902 117.5 151.862 117.5H158.387C159.377 117.5 159.872 117.905 159.872 118.715V119.84C159.872 120.65 159.377 121.055 158.387 121.055H157.217L165.317 143.24L173.417 121.055H172.247C171.287 121.055 170.807 120.65 170.807 119.84V118.715C170.807 117.905 171.287 117.5 172.247 117.5H178.412ZM186.642 122.135C185.802 122.135 185.097 121.85 184.527 121.28C183.957 120.71 183.672 120.005 183.672 119.165C183.672 118.325 183.957 117.635 184.527 117.095C185.097 116.525 185.802 116.24 186.642 116.24C187.482 116.24 188.172 116.525 188.712 117.095C189.282 117.635 189.567 118.325 189.567 119.165C189.567 120.005 189.282 120.71 188.712 121.28C188.172 121.85 187.482 122.135 186.642 122.135ZM184.167 149C183.207 149 182.727 148.595 182.727 147.785V146.66C182.727 145.85 183.207 145.445 184.167 145.445H185.337V130.055H184.167C183.207 130.055 182.727 129.65 182.727 128.84V127.715C182.727 126.905 183.207 126.5 184.167 126.5H187.722C188.202 126.5 188.592 126.665 188.892 126.995C189.222 127.295 189.387 127.685 189.387 128.165V145.445H190.557C191.547 145.445 192.042 145.85 192.042 146.66V147.785C192.042 148.595 191.547 149 190.557 149H184.167ZM206.398 135.905C209.218 136.715 211.213 137.645 212.383 138.695C213.553 139.715 214.138 141.08 214.138 142.79C214.138 144.08 213.763 145.235 213.013 146.255C212.263 147.245 211.198 148.025 209.818 148.595C208.468 149.165 206.908 149.45 205.138 149.45C202.348 149.45 200.113 148.925 198.433 147.875C196.783 146.795 195.958 145.4 195.958 143.69C195.958 142.82 196.198 142.13 196.678 141.62C197.158 141.11 197.803 140.855 198.613 140.855C199.303 140.855 199.873 141.095 200.323 141.575C200.803 142.055 201.043 142.64 201.043 143.33C201.043 143.96 200.848 144.47 200.458 144.86C201.178 145.88 202.723 146.39 205.093 146.39C206.713 146.39 207.943 146.105 208.783 145.535C209.653 144.965 210.088 144.2 210.088 143.24C210.088 142.61 209.953 142.1 209.683 141.71C209.413 141.29 208.933 140.93 208.243 140.63C207.583 140.3 206.563 139.94 205.183 139.55C202.933 138.92 201.178 138.29 199.918 137.66C198.688 137 197.803 136.28 197.263 135.5C196.723 134.69 196.453 133.685 196.453 132.485C196.453 131.225 196.828 130.115 197.578 129.155C198.328 128.165 199.363 127.4 200.683 126.86C202.033 126.32 203.563 126.05 205.273 126.05C207.943 126.05 210.028 126.53 211.528 127.49C213.028 128.42 213.778 129.725 213.778 131.405C213.778 132.275 213.538 132.98 213.058 133.52C212.578 134.03 211.948 134.285 211.168 134.285C210.448 134.285 209.848 134.045 209.368 133.565C208.918 133.085 208.693 132.485 208.693 131.765C208.693 131.135 208.888 130.625 209.278 130.235C208.618 129.485 207.268 129.11 205.228 129.11C203.818 129.11 202.678 129.41 201.808 130.01C200.938 130.61 200.503 131.39 200.503 132.35C200.503 132.86 200.668 133.295 200.998 133.655C201.328 134.015 201.898 134.36 202.708 134.69C203.548 135.02 204.778 135.425 206.398 135.905ZM238.383 145.445C239.343 145.445 239.823 145.85 239.823 146.66V147.785C239.823 148.595 239.343 149 238.383 149H234.783C234.333 149 233.943 148.85 233.613 148.55C233.313 148.22 233.163 147.815 233.163 147.335V144.5C232.593 145.91 231.603 147.095 230.193 148.055C228.813 148.985 227.343 149.45 225.783 149.45C223.683 149.45 221.988 148.85 220.698 147.65C219.408 146.42 218.763 144.8 218.763 142.79C218.763 140.69 219.468 139.07 220.878 137.93C222.318 136.79 224.358 136.22 226.998 136.22C229.008 136.22 231.063 136.46 233.163 136.94V134.915C233.163 133.055 232.728 131.675 231.858 130.775C230.988 129.875 229.638 129.425 227.808 129.425C226.398 129.425 225.348 129.695 224.658 130.235C224.868 130.595 224.973 130.985 224.973 131.405C224.973 132.095 224.733 132.68 224.253 133.16C223.773 133.64 223.188 133.88 222.498 133.88C221.688 133.88 221.043 133.625 220.563 133.115C220.083 132.605 219.843 131.915 219.843 131.045C219.843 129.575 220.608 128.375 222.138 127.445C223.668 126.515 225.618 126.05 227.988 126.05C230.958 126.05 233.223 126.845 234.783 128.435C236.373 130.025 237.168 132.275 237.168 135.185V145.445H238.383ZM226.728 146.165C227.868 146.165 228.918 145.865 229.878 145.265C230.868 144.635 231.648 143.81 232.218 142.79C232.818 141.74 233.133 140.6 233.163 139.37C231.813 139.16 229.953 139.055 227.583 139.055C224.343 139.055 222.723 140.255 222.723 142.655C222.723 143.765 223.083 144.635 223.803 145.265C224.523 145.865 225.498 146.165 226.728 146.165ZM266.184 145.445C267.144 145.445 267.624 145.85 267.624 146.66V147.785C267.624 148.595 267.144 149 266.184 149H259.929C258.939 149 258.444 148.595 258.444 147.785V146.66C258.444 145.85 258.939 145.445 259.929 145.445H260.964V136.76C260.964 134.09 260.634 132.23 259.974 131.18C259.344 130.1 258.234 129.56 256.644 129.56C255.534 129.56 254.469 129.935 253.449 130.685C252.459 131.405 251.649 132.35 251.019 133.52C250.419 134.69 250.119 135.92 250.119 137.21V145.445H251.154C252.144 145.445 252.639 145.85 252.639 146.66V147.785C252.639 148.595 252.144 149 251.154 149H244.899C243.939 149 243.459 148.595 243.459 147.785V146.66C243.459 145.85 243.939 145.445 244.899 145.445H246.069V130.055H244.899C243.939 130.055 243.459 129.65 243.459 128.84V127.715C243.459 126.905 243.939 126.5 244.899 126.5H248.454C248.934 126.5 249.324 126.665 249.624 126.995C249.954 127.295 250.119 127.685 250.119 128.165V131.54C250.749 129.95 251.769 128.645 253.179 127.625C254.619 126.575 256.104 126.05 257.634 126.05C262.554 126.05 265.014 129.41 265.014 136.13V145.445H266.184ZM293.102 145.445C294.092 145.445 294.587 145.85 294.587 146.66V147.785C294.587 148.595 294.092 149 293.102 149H289.592C289.112 149 288.707 148.85 288.377 148.55C288.077 148.22 287.927 147.815 287.927 147.335V144.5C287.387 145.91 286.412 147.095 285.002 148.055C283.622 148.985 282.152 149.45 280.592 149.45C278.792 149.45 277.202 148.985 275.822 148.055C274.472 147.125 273.422 145.805 272.672 144.095C271.952 142.355 271.592 140.33 271.592 138.02C271.592 134.3 272.462 131.375 274.202 129.245C275.972 127.115 278.387 126.05 281.447 126.05C282.707 126.05 283.907 126.35 285.047 126.95C286.187 127.55 287.147 128.39 287.927 129.47V119.255H286.757C285.767 119.255 285.272 118.85 285.272 118.04V116.915C285.272 116.105 285.767 115.7 286.757 115.7H290.357C290.807 115.7 291.182 115.865 291.482 116.195C291.782 116.495 291.932 116.885 291.932 117.365V145.445H293.102ZM281.492 145.94C282.662 145.94 283.742 145.625 284.732 144.995C285.722 144.335 286.502 143.45 287.072 142.34C287.642 141.23 287.927 140.015 287.927 138.695V132.845C287.087 131.795 286.142 130.985 285.092 130.415C284.072 129.845 282.992 129.56 281.852 129.56C279.842 129.56 278.312 130.31 277.262 131.81C276.212 133.28 275.687 135.425 275.687 138.245C275.687 140.675 276.197 142.565 277.217 143.915C278.237 145.265 279.662 145.94 281.492 145.94ZM309.236 149.45C307.106 149.45 305.231 148.985 303.611 148.055C301.991 147.095 300.746 145.745 299.876 144.005C299.006 142.265 298.571 140.255 298.571 137.975C298.571 135.605 299.021 133.52 299.921 131.72C300.821 129.92 302.081 128.525 303.701 127.535C305.321 126.545 307.211 126.05 309.371 126.05C311.501 126.05 313.376 126.53 314.996 127.49C316.616 128.42 317.861 129.755 318.731 131.495C319.601 133.235 320.036 135.245 320.036 137.525C320.036 139.895 319.586 141.98 318.686 143.78C317.786 145.58 316.526 146.975 314.906 147.965C313.286 148.955 311.396 149.45 309.236 149.45ZM309.236 145.94C311.366 145.94 313.016 145.205 314.186 143.735C315.356 142.265 315.941 140.21 315.941 137.57C315.941 134.99 315.371 133.01 314.231 131.63C313.091 130.25 311.471 129.56 309.371 129.56C307.271 129.56 305.621 130.31 304.421 131.81C303.251 133.28 302.666 135.32 302.666 137.93C302.666 140.48 303.236 142.46 304.376 143.87C305.516 145.25 307.136 145.94 309.236 145.94ZM347.462 135.905C350.282 136.715 352.277 137.645 353.447 138.695C354.617 139.715 355.202 141.08 355.202 142.79C355.202 144.08 354.827 145.235 354.077 146.255C353.327 147.245 352.262 148.025 350.882 148.595C349.532 149.165 347.972 149.45 346.202 149.45C343.412 149.45 341.177 148.925 339.497 147.875C337.847 146.795 337.022 145.4 337.022 143.69C337.022 142.82 337.262 142.13 337.742 141.62C338.222 141.11 338.867 140.855 339.677 140.855C340.367 140.855 340.937 141.095 341.387 141.575C341.867 142.055 342.107 142.64 342.107 143.33C342.107 143.96 341.912 144.47 341.522 144.86C342.242 145.88 343.787 146.39 346.157 146.39C347.777 146.39 349.007 146.105 349.847 145.535C350.717 144.965 351.152 144.2 351.152 143.24C351.152 142.61 351.017 142.1 350.747 141.71C350.477 141.29 349.997 140.93 349.307 140.63C348.647 140.3 347.627 139.94 346.247 139.55C343.997 138.92 342.242 138.29 340.982 137.66C339.752 137 338.867 136.28 338.327 135.5C337.787 134.69 337.517 133.685 337.517 132.485C337.517 131.225 337.892 130.115 338.642 129.155C339.392 128.165 340.427 127.4 341.747 126.86C343.097 126.32 344.627 126.05 346.337 126.05C349.007 126.05 351.092 126.53 352.592 127.49C354.092 128.42 354.842 129.725 354.842 131.405C354.842 132.275 354.602 132.98 354.122 133.52C353.642 134.03 353.012 134.285 352.232 134.285C351.512 134.285 350.912 134.045 350.432 133.565C349.982 133.085 349.757 132.485 349.757 131.765C349.757 131.135 349.952 130.625 350.342 130.235C349.682 129.485 348.332 129.11 346.292 129.11C344.882 129.11 343.742 129.41 342.872 130.01C342.002 130.61 341.567 131.39 341.567 132.35C341.567 132.86 341.732 133.295 342.062 133.655C342.392 134.015 342.962 134.36 343.772 134.69C344.612 135.02 345.842 135.425 347.462 135.905ZM381.563 145.445C382.523 145.445 383.003 145.85 383.003 146.66V147.785C383.003 148.595 382.523 149 381.563 149H378.008C377.528 149 377.123 148.85 376.793 148.55C376.493 148.22 376.343 147.815 376.343 147.335V143.96C375.683 145.55 374.663 146.87 373.283 147.92C371.933 148.94 370.493 149.45 368.963 149.45C366.503 149.45 364.673 148.625 363.473 146.975C362.303 145.325 361.718 142.79 361.718 139.37V130.055H360.548C359.588 130.055 359.108 129.65 359.108 128.84V127.715C359.108 126.905 359.588 126.5 360.548 126.5H364.193C364.613 126.5 364.973 126.665 365.273 126.995C365.603 127.295 365.768 127.685 365.768 128.165V138.74C365.768 140.57 365.888 141.995 366.128 143.015C366.398 144.035 366.833 144.785 367.433 145.265C368.063 145.715 368.903 145.94 369.953 145.94C371.033 145.94 372.068 145.58 373.058 144.86C374.048 144.14 374.843 143.195 375.443 142.025C376.043 140.825 376.343 139.58 376.343 138.29V130.055H375.173C374.183 130.055 373.688 129.65 373.688 128.84V127.715C373.688 126.905 374.183 126.5 375.173 126.5H378.773C379.253 126.5 379.643 126.665 379.943 126.995C380.243 127.295 380.393 127.685 380.393 128.165V145.445H381.563ZM406.43 145.445C407.39 145.445 407.87 145.85 407.87 146.66V147.785C407.87 148.595 407.39 149 406.43 149H402.83C402.38 149 401.99 148.85 401.66 148.55C401.36 148.22 401.21 147.815 401.21 147.335V144.5C400.64 145.91 399.65 147.095 398.24 148.055C396.86 148.985 395.39 149.45 393.83 149.45C391.73 149.45 390.035 148.85 388.745 147.65C387.455 146.42 386.81 144.8 386.81 142.79C386.81 140.69 387.515 139.07 388.925 137.93C390.365 136.79 392.405 136.22 395.045 136.22C397.055 136.22 399.11 136.46 401.21 136.94V134.915C401.21 133.055 400.775 131.675 399.905 130.775C399.035 129.875 397.685 129.425 395.855 129.425C394.445 129.425 393.395 129.695 392.705 130.235C392.915 130.595 393.02 130.985 393.02 131.405C393.02 132.095 392.78 132.68 392.3 133.16C391.82 133.64 391.235 133.88 390.545 133.88C389.735 133.88 389.09 133.625 388.61 133.115C388.13 132.605 387.89 131.915 387.89 131.045C387.89 129.575 388.655 128.375 390.185 127.445C391.715 126.515 393.665 126.05 396.035 126.05C399.005 126.05 401.27 126.845 402.83 128.435C404.42 130.025 405.215 132.275 405.215 135.185V145.445H406.43ZM394.775 146.165C395.915 146.165 396.965 145.865 397.925 145.265C398.915 144.635 399.695 143.81 400.265 142.79C400.865 141.74 401.18 140.6 401.21 139.37C399.86 139.16 398 139.055 395.63 139.055C392.39 139.055 390.77 140.255 390.77 142.655C390.77 143.765 391.13 144.635 391.85 145.265C392.57 145.865 393.545 146.165 394.775 146.165ZM436.275 117.5C441.075 117.5 444.765 118.805 447.345 121.415C449.955 123.995 451.26 127.7 451.26 132.53C451.26 135.86 450.645 138.77 449.415 141.26C448.185 143.72 446.43 145.625 444.15 146.975C441.87 148.325 439.2 149 436.14 149H425.97C424.98 149 424.485 148.595 424.485 147.785V146.66C424.485 145.85 424.98 145.445 425.97 145.445H427.14V121.055H425.97C424.98 121.055 424.485 120.65 424.485 119.84V118.715C424.485 117.905 424.98 117.5 425.97 117.5H436.275ZM435.735 145.445C439.395 145.445 442.2 144.335 444.15 142.115C446.13 139.895 447.12 136.745 447.12 132.665C447.12 128.735 446.205 125.825 444.375 123.935C442.545 122.015 439.755 121.055 436.005 121.055H431.19V145.445H435.735ZM460.377 122.135C459.537 122.135 458.832 121.85 458.262 121.28C457.692 120.71 457.407 120.005 457.407 119.165C457.407 118.325 457.692 117.635 458.262 117.095C458.832 116.525 459.537 116.24 460.377 116.24C461.217 116.24 461.907 116.525 462.447 117.095C463.017 117.635 463.302 118.325 463.302 119.165C463.302 120.005 463.017 120.71 462.447 121.28C461.907 121.85 461.217 122.135 460.377 122.135ZM457.902 149C456.942 149 456.462 148.595 456.462 147.785V146.66C456.462 145.85 456.942 145.445 457.902 145.445H459.072V130.055H457.902C456.942 130.055 456.462 129.65 456.462 128.84V127.715C456.462 126.905 456.942 126.5 457.902 126.5H461.457C461.937 126.5 462.327 126.665 462.627 126.995C462.957 127.295 463.122 127.685 463.122 128.165V145.445H464.292C465.282 145.445 465.777 145.85 465.777 146.66V147.785C465.777 148.595 465.282 149 464.292 149H457.902ZM480.133 135.905C482.953 136.715 484.948 137.645 486.118 138.695C487.288 139.715 487.873 141.08 487.873 142.79C487.873 144.08 487.498 145.235 486.748 146.255C485.998 147.245 484.933 148.025 483.553 148.595C482.203 149.165 480.643 149.45 478.873 149.45C476.083 149.45 473.848 148.925 472.168 147.875C470.518 146.795 469.693 145.4 469.693 143.69C469.693 142.82 469.933 142.13 470.413 141.62C470.893 141.11 471.538 140.855 472.348 140.855C473.038 140.855 473.608 141.095 474.058 141.575C474.538 142.055 474.778 142.64 474.778 143.33C474.778 143.96 474.583 144.47 474.193 144.86C474.913 145.88 476.458 146.39 478.828 146.39C480.448 146.39 481.678 146.105 482.518 145.535C483.388 144.965 483.823 144.2 483.823 143.24C483.823 142.61 483.688 142.1 483.418 141.71C483.148 141.29 482.668 140.93 481.978 140.63C481.318 140.3 480.298 139.94 478.918 139.55C476.668 138.92 474.913 138.29 473.653 137.66C472.423 137 471.538 136.28 470.998 135.5C470.458 134.69 470.188 133.685 470.188 132.485C470.188 131.225 470.563 130.115 471.313 129.155C472.063 128.165 473.098 127.4 474.418 126.86C475.768 126.32 477.298 126.05 479.008 126.05C481.678 126.05 483.763 126.53 485.263 127.49C486.763 128.42 487.513 129.725 487.513 131.405C487.513 132.275 487.273 132.98 486.793 133.52C486.313 134.03 485.683 134.285 484.903 134.285C484.183 134.285 483.583 134.045 483.103 133.565C482.653 133.085 482.428 132.485 482.428 131.765C482.428 131.135 482.623 130.625 483.013 130.235C482.353 129.485 481.003 129.11 478.963 129.11C477.553 129.11 476.413 129.41 475.543 130.01C474.673 130.61 474.238 131.39 474.238 132.35C474.238 132.86 474.403 133.295 474.733 133.655C475.063 134.015 475.633 134.36 476.443 134.69C477.283 135.02 478.513 135.425 480.133 135.905ZM510.273 142.07C510.723 142.07 511.113 142.22 511.443 142.52C511.803 142.79 511.983 143.135 511.983 143.555C511.983 144.125 511.773 144.71 511.353 145.31C510.483 146.72 509.403 147.77 508.113 148.46C506.823 149.12 505.218 149.45 503.298 149.45C501.168 149.45 499.293 148.955 497.673 147.965C496.083 146.975 494.838 145.58 493.938 143.78C493.068 141.98 492.633 139.91 492.633 137.57C492.633 135.26 493.068 133.235 493.938 131.495C494.838 129.755 496.083 128.42 497.673 127.49C499.263 126.53 501.108 126.05 503.208 126.05C504.948 126.05 506.493 126.35 507.843 126.95C509.193 127.55 510.243 128.405 510.993 129.515C511.743 130.595 512.118 131.825 512.118 133.205C512.118 134.135 511.863 134.87 511.353 135.41C510.843 135.95 510.168 136.22 509.328 136.22C508.578 136.22 507.948 135.98 507.438 135.5C506.958 135.02 506.718 134.42 506.718 133.7C506.718 132.86 507.003 132.185 507.573 131.675C507.213 130.985 506.643 130.46 505.863 130.1C505.113 129.74 504.183 129.56 503.073 129.56C501.033 129.56 499.458 130.25 498.348 131.63C497.268 133.01 496.728 134.975 496.728 137.525C496.728 140.135 497.313 142.19 498.483 143.69C499.683 145.19 501.333 145.94 503.433 145.94C504.753 145.94 505.803 145.73 506.583 145.31C507.363 144.89 508.098 144.14 508.788 143.06C509.028 142.7 509.253 142.445 509.463 142.295C509.703 142.145 509.973 142.07 510.273 142.07ZM529.99 126.05C531.19 126.05 532.105 126.335 532.735 126.905C533.365 127.445 533.68 128.21 533.68 129.2C533.68 129.98 533.425 130.64 532.915 131.18C532.405 131.69 531.745 131.945 530.935 131.945C530.215 131.945 529.615 131.735 529.135 131.315C528.655 130.865 528.385 130.295 528.325 129.605C527.395 129.695 526.54 130.145 525.76 130.955C524.98 131.735 524.35 132.755 523.87 134.015C523.42 135.245 523.195 136.565 523.195 137.975V145.445H525.31C526.3 145.445 526.795 145.85 526.795 146.66V147.785C526.795 148.595 526.3 149 525.31 149H517.975C517.015 149 516.535 148.595 516.535 147.785V146.66C516.535 145.85 517.015 145.445 517.975 145.445H519.145V130.055H517.975C517.015 130.055 516.535 129.65 516.535 128.84V127.715C516.535 126.905 517.015 126.5 517.975 126.5H521.53C522.01 126.5 522.4 126.665 522.7 126.995C523.03 127.295 523.195 127.685 523.195 128.165V132.125C523.735 130.265 524.605 128.795 525.805 127.715C527.035 126.605 528.43 126.05 529.99 126.05ZM540.973 122.135C540.133 122.135 539.428 121.85 538.858 121.28C538.288 120.71 538.003 120.005 538.003 119.165C538.003 118.325 538.288 117.635 538.858 117.095C539.428 116.525 540.133 116.24 540.973 116.24C541.813 116.24 542.503 116.525 543.043 117.095C543.613 117.635 543.898 118.325 543.898 119.165C543.898 120.005 543.613 120.71 543.043 121.28C542.503 121.85 541.813 122.135 540.973 122.135ZM538.498 149C537.538 149 537.058 148.595 537.058 147.785V146.66C537.058 145.85 537.538 145.445 538.498 145.445H539.668V130.055H538.498C537.538 130.055 537.058 129.65 537.058 128.84V127.715C537.058 126.905 537.538 126.5 538.498 126.5H542.053C542.533 126.5 542.923 126.665 543.223 126.995C543.553 127.295 543.718 127.685 543.718 128.165V145.445H544.888C545.878 145.445 546.373 145.85 546.373 146.66V147.785C546.373 148.595 545.878 149 544.888 149H538.498ZM567.974 142.07C568.424 142.07 568.814 142.22 569.144 142.52C569.504 142.79 569.684 143.135 569.684 143.555C569.684 144.125 569.474 144.71 569.054 145.31C568.244 146.6 567.254 147.59 566.084 148.28C564.944 148.94 563.549 149.315 561.899 149.405L560.369 152.195C560.609 152.165 560.999 152.15 561.539 152.15C563.009 152.15 564.134 152.51 564.914 153.23C565.724 153.98 566.129 155.015 566.129 156.335C566.129 157.745 565.649 158.84 564.689 159.62C563.729 160.43 562.409 160.835 560.729 160.835H557.894C556.814 160.835 556.274 160.34 556.274 159.35V159.215C556.274 158.735 556.409 158.36 556.679 158.09C556.979 157.82 557.384 157.685 557.894 157.685H560.594C561.914 157.685 562.574 157.22 562.574 156.29C562.574 155.81 562.424 155.465 562.124 155.255C561.824 155.045 561.314 154.94 560.594 154.94H557.849C556.949 154.94 556.499 154.535 556.499 153.725C556.499 153.335 556.694 152.765 557.084 152.015L558.659 149.225C556.079 148.715 554.039 147.425 552.539 145.355C551.069 143.255 550.334 140.66 550.334 137.57C550.334 135.26 550.769 133.235 551.639 131.495C552.539 129.755 553.784 128.42 555.374 127.49C556.964 126.53 558.809 126.05 560.909 126.05C562.649 126.05 564.194 126.35 565.544 126.95C566.894 127.55 567.944 128.405 568.694 129.515C569.444 130.595 569.819 131.825 569.819 133.205C569.819 134.135 569.564 134.87 569.054 135.41C568.544 135.95 567.869 136.22 567.029 136.22C566.279 136.22 565.649 135.98 565.139 135.5C564.659 135.02 564.419 134.42 564.419 133.7C564.419 132.86 564.704 132.185 565.274 131.675C564.914 130.985 564.344 130.46 563.564 130.1C562.814 129.74 561.884 129.56 560.774 129.56C558.734 129.56 557.159 130.25 556.049 131.63C554.969 133.01 554.429 134.975 554.429 137.525C554.429 140.135 555.014 142.19 556.184 143.69C557.384 145.19 559.034 145.94 561.134 145.94C562.454 145.94 563.504 145.73 564.284 145.31C565.064 144.89 565.799 144.14 566.489 143.06C566.729 142.7 566.954 142.445 567.164 142.295C567.404 142.145 567.674 142.07 567.974 142.07ZM593.901 145.445C594.861 145.445 595.341 145.85 595.341 146.66V147.785C595.341 148.595 594.861 149 593.901 149H590.301C589.851 149 589.461 148.85 589.131 148.55C588.831 148.22 588.681 147.815 588.681 147.335V144.5C588.111 145.91 587.121 147.095 585.711 148.055C584.331 148.985 582.861 149.45 581.301 149.45C579.201 149.45 577.506 148.85 576.216 147.65C574.926 146.42 574.281 144.8 574.281 142.79C574.281 140.69 574.986 139.07 576.396 137.93C577.836 136.79 579.876 136.22 582.516 136.22C584.526 136.22 586.581 136.46 588.681 136.94V134.915C588.681 133.055 588.246 131.675 587.376 130.775C586.506 129.875 585.156 129.425 583.326 129.425C581.916 129.425 580.866 129.695 580.176 130.235C580.386 130.595 580.491 130.985 580.491 131.405C580.491 132.095 580.251 132.68 579.771 133.16C579.291 133.64 578.706 133.88 578.016 133.88C577.206 133.88 576.561 133.625 576.081 133.115C575.601 132.605 575.361 131.915 575.361 131.045C575.361 129.575 576.126 128.375 577.656 127.445C579.186 126.515 581.136 126.05 583.506 126.05C586.476 126.05 588.741 126.845 590.301 128.435C591.891 130.025 592.686 132.275 592.686 135.185V145.445H593.901ZM582.246 146.165C583.386 146.165 584.436 145.865 585.396 145.265C586.386 144.635 587.166 143.81 587.736 142.79C588.336 141.74 588.651 140.6 588.681 139.37C587.331 139.16 585.471 139.055 583.101 139.055C579.861 139.055 578.241 140.255 578.241 142.655C578.241 143.765 578.601 144.635 579.321 145.265C580.041 145.865 581.016 146.165 582.246 146.165ZM586.296 123.26C585.576 123.26 584.976 123.11 584.496 122.81C584.046 122.48 583.416 121.82 582.606 120.83C582.216 120.32 581.901 119.975 581.661 119.795C581.451 119.615 581.241 119.525 581.031 119.525C580.851 119.525 580.671 119.6 580.491 119.75C580.311 119.9 580.071 120.155 579.771 120.515C578.931 121.535 578.361 122.18 578.061 122.45C577.761 122.72 577.446 122.855 577.116 122.855C576.786 122.855 576.501 122.735 576.261 122.495C576.021 122.225 575.901 121.97 575.901 121.73C575.901 121.52 575.961 121.28 576.081 121.01C576.201 120.74 576.516 120.2 577.026 119.39C577.746 118.25 578.406 117.425 579.006 116.915C579.636 116.405 580.401 116.15 581.301 116.15C582.021 116.15 582.606 116.315 583.056 116.645C583.536 116.945 584.166 117.59 584.946 118.58C585.366 119.09 585.681 119.435 585.891 119.615C586.131 119.795 586.356 119.885 586.566 119.885C586.746 119.885 586.926 119.825 587.106 119.705C587.286 119.555 587.526 119.3 587.826 118.94C588.696 117.86 589.266 117.2 589.536 116.96C589.836 116.69 590.136 116.555 590.436 116.555C590.766 116.555 591.051 116.69 591.291 116.96C591.561 117.2 591.696 117.455 591.696 117.725C591.696 117.935 591.621 118.175 591.471 118.445C591.351 118.715 591.051 119.24 590.571 120.02C589.851 121.16 589.176 121.985 588.546 122.495C587.946 123.005 587.196 123.26 586.296 123.26ZM609.822 149.45C607.692 149.45 605.817 148.985 604.197 148.055C602.577 147.095 601.332 145.745 600.462 144.005C599.592 142.265 599.157 140.255 599.157 137.975C599.157 135.605 599.607 133.52 600.507 131.72C601.407 129.92 602.667 128.525 604.287 127.535C605.907 126.545 607.797 126.05 609.957 126.05C612.087 126.05 613.962 126.53 615.582 127.49C617.202 128.42 618.447 129.755 619.317 131.495C620.187 133.235 620.622 135.245 620.622 137.525C620.622 139.895 620.172 141.98 619.272 143.78C618.372 145.58 617.112 146.975 615.492 147.965C613.872 148.955 611.982 149.45 609.822 149.45ZM609.822 145.94C611.952 145.94 613.602 145.205 614.772 143.735C615.942 142.265 616.527 140.21 616.527 137.57C616.527 134.99 615.957 133.01 614.817 131.63C613.677 130.25 612.057 129.56 609.957 129.56C607.857 129.56 606.207 130.31 605.007 131.81C603.837 133.28 603.252 135.32 603.252 137.93C603.252 140.48 603.822 142.46 604.962 143.87C606.102 145.25 607.722 145.94 609.822 145.94ZM628.409 157.145C628.139 157.145 627.884 157.04 627.644 156.83C627.404 156.62 627.284 156.365 627.284 156.065C627.284 155.855 627.404 155.585 627.644 155.255C629.294 153.095 630.119 151.385 630.119 150.125C630.119 149.855 630.074 149.66 629.984 149.54C629.924 149.42 629.774 149.345 629.534 149.315C627.914 148.925 627.104 147.905 627.104 146.255C627.104 145.325 627.404 144.575 628.004 144.005C628.634 143.405 629.414 143.105 630.344 143.105C631.424 143.105 632.264 143.48 632.864 144.23C633.464 144.95 633.764 145.925 633.764 147.155C633.764 150.185 632.369 153.275 629.579 156.425C629.219 156.905 628.829 157.145 628.409 157.145ZM353.823 190.625C353.823 190.775 353.778 191.435 353.688 192.605H337.713C337.863 194.885 338.523 196.685 339.693 198.005C340.863 199.295 342.423 199.94 344.373 199.94C345.693 199.94 346.743 199.73 347.523 199.31C348.303 198.89 349.038 198.14 349.728 197.06C349.968 196.7 350.193 196.445 350.403 196.295C350.643 196.145 350.913 196.07 351.213 196.07C351.663 196.07 352.053 196.22 352.383 196.52C352.743 196.79 352.923 197.135 352.923 197.555C352.923 198.125 352.713 198.71 352.293 199.31C351.423 200.72 350.343 201.77 349.053 202.46C347.763 203.12 346.158 203.45 344.238 203.45C342.108 203.45 340.233 202.955 338.613 201.965C337.023 200.975 335.778 199.58 334.878 197.78C334.008 195.98 333.573 193.91 333.573 191.57C333.573 189.26 334.008 187.235 334.878 185.495C335.748 183.755 336.978 182.42 338.568 181.49C340.158 180.53 342.003 180.05 344.103 180.05C347.013 180.05 349.353 180.98 351.123 182.84C352.923 184.7 353.823 187.295 353.823 190.625ZM344.013 183.38C342.243 183.38 340.818 183.92 339.738 185C338.688 186.05 338.043 187.58 337.803 189.59H349.728C349.698 185.45 347.793 183.38 344.013 183.38ZM381.19 189.905C384.01 190.715 386.005 191.645 387.175 192.695C388.345 193.715 388.93 195.08 388.93 196.79C388.93 198.08 388.555 199.235 387.805 200.255C387.055 201.245 385.99 202.025 384.61 202.595C383.26 203.165 381.7 203.45 379.93 203.45C377.14 203.45 374.905 202.925 373.225 201.875C371.575 200.795 370.75 199.4 370.75 197.69C370.75 196.82 370.99 196.13 371.47 195.62C371.95 195.11 372.595 194.855 373.405 194.855C374.095 194.855 374.665 195.095 375.115 195.575C375.595 196.055 375.835 196.64 375.835 197.33C375.835 197.96 375.64 198.47 375.25 198.86C375.97 199.88 377.515 200.39 379.885 200.39C381.505 200.39 382.735 200.105 383.575 199.535C384.445 198.965 384.88 198.2 384.88 197.24C384.88 196.61 384.745 196.1 384.475 195.71C384.205 195.29 383.725 194.93 383.035 194.63C382.375 194.3 381.355 193.94 379.975 193.55C377.725 192.92 375.97 192.29 374.71 191.66C373.48 191 372.595 190.28 372.055 189.5C371.515 188.69 371.245 187.685 371.245 186.485C371.245 185.225 371.62 184.115 372.37 183.155C373.12 182.165 374.155 181.4 375.475 180.86C376.825 180.32 378.355 180.05 380.065 180.05C382.735 180.05 384.82 180.53 386.32 181.49C387.82 182.42 388.57 183.725 388.57 185.405C388.57 186.275 388.33 186.98 387.85 187.52C387.37 188.03 386.74 188.285 385.96 188.285C385.24 188.285 384.64 188.045 384.16 187.565C383.71 187.085 383.485 186.485 383.485 185.765C383.485 185.135 383.68 184.625 384.07 184.235C383.41 183.485 382.06 183.11 380.02 183.11C378.61 183.11 377.47 183.41 376.6 184.01C375.73 184.61 375.295 185.39 375.295 186.35C375.295 186.86 375.46 187.295 375.79 187.655C376.12 188.015 376.69 188.36 377.5 188.69C378.34 189.02 379.57 189.425 381.19 189.905ZM413.176 199.445C414.136 199.445 414.616 199.85 414.616 200.66V201.785C414.616 202.595 414.136 203 413.176 203H409.576C409.126 203 408.736 202.85 408.406 202.55C408.106 202.22 407.956 201.815 407.956 201.335V198.5C407.386 199.91 406.396 201.095 404.986 202.055C403.606 202.985 402.136 203.45 400.576 203.45C398.476 203.45 396.781 202.85 395.491 201.65C394.201 200.42 393.556 198.8 393.556 196.79C393.556 194.69 394.261 193.07 395.671 191.93C397.111 190.79 399.151 190.22 401.791 190.22C403.801 190.22 405.856 190.46 407.956 190.94V188.915C407.956 187.055 407.521 185.675 406.651 184.775C405.781 183.875 404.431 183.425 402.601 183.425C401.191 183.425 400.141 183.695 399.451 184.235C399.661 184.595 399.766 184.985 399.766 185.405C399.766 186.095 399.526 186.68 399.046 187.16C398.566 187.64 397.981 187.88 397.291 187.88C396.481 187.88 395.836 187.625 395.356 187.115C394.876 186.605 394.636 185.915 394.636 185.045C394.636 183.575 395.401 182.375 396.931 181.445C398.461 180.515 400.411 180.05 402.781 180.05C405.751 180.05 408.016 180.845 409.576 182.435C411.166 184.025 411.961 186.275 411.961 189.185V199.445H413.176ZM401.521 200.165C402.661 200.165 403.711 199.865 404.671 199.265C405.661 198.635 406.441 197.81 407.011 196.79C407.611 195.74 407.926 194.6 407.956 193.37C406.606 193.16 404.746 193.055 402.376 193.055C399.136 193.055 397.516 194.255 397.516 196.655C397.516 197.765 397.876 198.635 398.596 199.265C399.316 199.865 400.291 200.165 401.521 200.165ZM422.167 176.135C421.327 176.135 420.622 175.85 420.052 175.28C419.482 174.71 419.197 174.005 419.197 173.165C419.197 172.325 419.482 171.635 420.052 171.095C420.622 170.525 421.327 170.24 422.167 170.24C423.007 170.24 423.697 170.525 424.237 171.095C424.807 171.635 425.092 172.325 425.092 173.165C425.092 174.005 424.807 174.71 424.237 175.28C423.697 175.85 423.007 176.135 422.167 176.135ZM419.692 203C418.732 203 418.252 202.595 418.252 201.785V200.66C418.252 199.85 418.732 199.445 419.692 199.445H420.862V184.055H419.692C418.732 184.055 418.252 183.65 418.252 182.84V181.715C418.252 180.905 418.732 180.5 419.692 180.5H423.247C423.727 180.5 424.117 180.665 424.417 180.995C424.747 181.295 424.912 181.685 424.912 182.165V199.445H426.082C427.072 199.445 427.567 199.85 427.567 200.66V201.785C427.567 202.595 427.072 203 426.082 203H419.692ZM444.353 180.05C446.153 180.05 447.728 180.515 449.078 181.445C450.458 182.375 451.508 183.71 452.228 185.45C452.978 187.16 453.353 189.17 453.353 191.48C453.353 195.2 452.468 198.125 450.698 200.255C448.958 202.385 446.543 203.45 443.453 203.45C442.133 203.45 440.873 203.12 439.673 202.46C438.473 201.77 437.468 200.825 436.658 199.625L436.388 201.83C436.268 202.79 435.773 203.27 434.903 203.27H434.588C434.108 203.27 433.718 203.135 433.418 202.865C433.118 202.595 432.968 202.175 432.968 201.605V173.255H431.798C430.838 173.255 430.358 172.85 430.358 172.04V170.915C430.358 170.105 430.838 169.7 431.798 169.7H435.398C435.878 169.7 436.268 169.865 436.568 170.195C436.868 170.495 437.018 170.885 437.018 171.365V184.91C437.588 183.5 438.548 182.345 439.898 181.445C441.278 180.515 442.763 180.05 444.353 180.05ZM443.093 199.94C445.103 199.94 446.633 199.205 447.683 197.735C448.733 196.235 449.258 194.075 449.258 191.255C449.258 188.825 448.748 186.935 447.728 185.585C446.708 184.235 445.268 183.56 443.408 183.56C442.238 183.56 441.158 183.89 440.168 184.55C439.208 185.18 438.443 186.05 437.873 187.16C437.303 188.27 437.018 189.485 437.018 190.805V196.655C437.828 197.705 438.758 198.515 439.808 199.085C440.858 199.655 441.953 199.94 443.093 199.94ZM477.599 199.445C478.559 199.445 479.039 199.85 479.039 200.66V201.785C479.039 202.595 478.559 203 477.599 203H473.999C473.549 203 473.159 202.85 472.829 202.55C472.529 202.22 472.379 201.815 472.379 201.335V198.5C471.809 199.91 470.819 201.095 469.409 202.055C468.029 202.985 466.559 203.45 464.999 203.45C462.899 203.45 461.204 202.85 459.914 201.65C458.624 200.42 457.979 198.8 457.979 196.79C457.979 194.69 458.684 193.07 460.094 191.93C461.534 190.79 463.574 190.22 466.214 190.22C468.224 190.22 470.279 190.46 472.379 190.94V188.915C472.379 187.055 471.944 185.675 471.074 184.775C470.204 183.875 468.854 183.425 467.024 183.425C465.614 183.425 464.564 183.695 463.874 184.235C464.084 184.595 464.189 184.985 464.189 185.405C464.189 186.095 463.949 186.68 463.469 187.16C462.989 187.64 462.404 187.88 461.714 187.88C460.904 187.88 460.259 187.625 459.779 187.115C459.299 186.605 459.059 185.915 459.059 185.045C459.059 183.575 459.824 182.375 461.354 181.445C462.884 180.515 464.834 180.05 467.204 180.05C470.174 180.05 472.439 180.845 473.999 182.435C475.589 184.025 476.384 186.275 476.384 189.185V199.445H477.599ZM465.944 200.165C467.084 200.165 468.134 199.865 469.094 199.265C470.084 198.635 470.864 197.81 471.434 196.79C472.034 195.74 472.349 194.6 472.379 193.37C471.029 193.16 469.169 193.055 466.799 193.055C463.559 193.055 461.939 194.255 461.939 196.655C461.939 197.765 462.299 198.635 463.019 199.265C463.739 199.865 464.714 200.165 465.944 200.165ZM531.114 199.445C532.074 199.445 532.554 199.85 532.554 200.66V201.785C532.554 202.595 532.074 203 531.114 203H524.859C523.869 203 523.374 202.595 523.374 201.785V200.66C523.374 199.85 523.869 199.445 524.859 199.445H525.894V190.76C525.894 188.9 525.774 187.46 525.534 186.44C525.294 185.42 524.889 184.685 524.319 184.235C523.779 183.785 522.999 183.56 521.979 183.56C520.929 183.56 519.924 183.92 518.964 184.64C518.004 185.36 517.239 186.305 516.669 187.475C516.099 188.645 515.814 189.89 515.814 191.21V199.445H516.849C517.839 199.445 518.334 199.85 518.334 200.66V201.785C518.334 202.595 517.839 203 516.849 203H510.729C509.739 203 509.244 202.595 509.244 201.785V200.66C509.244 199.85 509.739 199.445 510.729 199.445H511.764V190.76C511.764 188.9 511.644 187.46 511.404 186.44C511.164 185.42 510.759 184.685 510.189 184.235C509.649 183.785 508.869 183.56 507.849 183.56C506.799 183.56 505.794 183.92 504.834 184.64C503.904 185.36 503.139 186.305 502.539 187.475C501.969 188.645 501.684 189.89 501.684 191.21V199.445H502.719C503.709 199.445 504.204 199.85 504.204 200.66V201.785C504.204 202.595 503.709 203 502.719 203H496.464C495.504 203 495.024 202.595 495.024 201.785V200.66C495.024 199.85 495.504 199.445 496.464 199.445H497.634V184.055H496.464C495.504 184.055 495.024 183.65 495.024 182.84V181.715C495.024 180.905 495.504 180.5 496.464 180.5H500.019C500.499 180.5 500.889 180.665 501.189 180.995C501.519 181.295 501.684 181.685 501.684 182.165V185.495C502.314 183.905 503.289 182.6 504.609 181.58C505.959 180.56 507.354 180.05 508.794 180.05C510.594 180.05 512.034 180.515 513.114 181.445C514.224 182.375 514.989 183.8 515.409 185.72C516.279 183.92 517.374 182.525 518.694 181.535C520.014 180.545 521.424 180.05 522.924 180.05C525.294 180.05 527.049 180.875 528.189 182.525C529.359 184.175 529.944 186.71 529.944 190.13V199.445H531.114ZM555.866 199.445C556.826 199.445 557.306 199.85 557.306 200.66V201.785C557.306 202.595 556.826 203 555.866 203H552.266C551.816 203 551.426 202.85 551.096 202.55C550.796 202.22 550.646 201.815 550.646 201.335V198.5C550.076 199.91 549.086 201.095 547.676 202.055C546.296 202.985 544.826 203.45 543.266 203.45C541.166 203.45 539.471 202.85 538.181 201.65C536.891 200.42 536.246 198.8 536.246 196.79C536.246 194.69 536.951 193.07 538.361 191.93C539.801 190.79 541.841 190.22 544.481 190.22C546.491 190.22 548.546 190.46 550.646 190.94V188.915C550.646 187.055 550.211 185.675 549.341 184.775C548.471 183.875 547.121 183.425 545.291 183.425C543.881 183.425 542.831 183.695 542.141 184.235C542.351 184.595 542.456 184.985 542.456 185.405C542.456 186.095 542.216 186.68 541.736 187.16C541.256 187.64 540.671 187.88 539.981 187.88C539.171 187.88 538.526 187.625 538.046 187.115C537.566 186.605 537.326 185.915 537.326 185.045C537.326 183.575 538.091 182.375 539.621 181.445C541.151 180.515 543.101 180.05 545.471 180.05C548.441 180.05 550.706 180.845 552.266 182.435C553.856 184.025 554.651 186.275 554.651 189.185V199.445H555.866ZM544.211 200.165C545.351 200.165 546.401 199.865 547.361 199.265C548.351 198.635 549.131 197.81 549.701 196.79C550.301 195.74 550.616 194.6 550.646 193.37C549.296 193.16 547.436 193.055 545.066 193.055C541.826 193.055 540.206 194.255 540.206 196.655C540.206 197.765 540.566 198.635 541.286 199.265C542.006 199.865 542.981 200.165 544.211 200.165ZM564.857 176.135C564.017 176.135 563.312 175.85 562.742 175.28C562.172 174.71 561.887 174.005 561.887 173.165C561.887 172.325 562.172 171.635 562.742 171.095C563.312 170.525 564.017 170.24 564.857 170.24C565.697 170.24 566.387 170.525 566.927 171.095C567.497 171.635 567.782 172.325 567.782 173.165C567.782 174.005 567.497 174.71 566.927 175.28C566.387 175.85 565.697 176.135 564.857 176.135ZM562.382 203C561.422 203 560.942 202.595 560.942 201.785V200.66C560.942 199.85 561.422 199.445 562.382 199.445H563.552V184.055H562.382C561.422 184.055 560.942 183.65 560.942 182.84V181.715C560.942 180.905 561.422 180.5 562.382 180.5H565.937C566.417 180.5 566.807 180.665 567.107 180.995C567.437 181.295 567.602 181.685 567.602 182.165V199.445H568.772C569.762 199.445 570.257 199.85 570.257 200.66V201.785C570.257 202.595 569.762 203 568.772 203H562.382ZM584.613 189.905C587.433 190.715 589.428 191.645 590.598 192.695C591.768 193.715 592.353 195.08 592.353 196.79C592.353 198.08 591.978 199.235 591.228 200.255C590.478 201.245 589.413 202.025 588.033 202.595C586.683 203.165 585.123 203.45 583.353 203.45C580.563 203.45 578.328 202.925 576.648 201.875C574.998 200.795 574.173 199.4 574.173 197.69C574.173 196.82 574.413 196.13 574.893 195.62C575.373 195.11 576.018 194.855 576.828 194.855C577.518 194.855 578.088 195.095 578.538 195.575C579.018 196.055 579.258 196.64 579.258 197.33C579.258 197.96 579.063 198.47 578.673 198.86C579.393 199.88 580.938 200.39 583.308 200.39C584.928 200.39 586.158 200.105 586.998 199.535C587.868 198.965 588.303 198.2 588.303 197.24C588.303 196.61 588.168 196.1 587.898 195.71C587.628 195.29 587.148 194.93 586.458 194.63C585.798 194.3 584.778 193.94 583.398 193.55C581.148 192.92 579.393 192.29 578.133 191.66C576.903 191 576.018 190.28 575.478 189.5C574.938 188.69 574.668 187.685 574.668 186.485C574.668 185.225 575.043 184.115 575.793 183.155C576.543 182.165 577.578 181.4 578.898 180.86C580.248 180.32 581.778 180.05 583.488 180.05C586.158 180.05 588.243 180.53 589.743 181.49C591.243 182.42 591.993 183.725 591.993 185.405C591.993 186.275 591.753 186.98 591.273 187.52C590.793 188.03 590.163 188.285 589.383 188.285C588.663 188.285 588.063 188.045 587.583 187.565C587.133 187.085 586.908 186.485 586.908 185.765C586.908 185.135 587.103 184.625 587.493 184.235C586.833 183.485 585.483 183.11 583.443 183.11C582.033 183.11 580.893 183.41 580.023 184.01C579.153 184.61 578.718 185.39 578.718 186.35C578.718 186.86 578.883 187.295 579.213 187.655C579.543 188.015 580.113 188.36 580.923 188.69C581.763 189.02 582.993 189.425 584.613 189.905ZM600.218 211.145C599.948 211.145 599.693 211.04 599.453 210.83C599.213 210.62 599.093 210.365 599.093 210.065C599.093 209.855 599.213 209.585 599.453 209.255C601.103 207.095 601.928 205.385 601.928 204.125C601.928 203.855 601.883 203.66 601.793 203.54C601.733 203.42 601.583 203.345 601.343 203.315C599.723 202.925 598.913 201.905 598.913 200.255C598.913 199.325 599.213 198.575 599.813 198.005C600.443 197.405 601.223 197.105 602.153 197.105C603.233 197.105 604.073 197.48 604.673 198.23C605.273 198.95 605.573 199.925 605.573 201.155C605.573 204.185 604.178 207.275 601.388 210.425C601.028 210.905 600.638 211.145 600.218 211.145ZM625.17 203C624.18 203 623.685 202.595 623.685 201.785V200.66C623.685 199.85 624.18 199.445 625.17 199.445H626.34V173.255H625.17C624.18 173.255 623.685 172.85 623.685 172.04V170.915C623.685 170.105 624.18 169.7 625.17 169.7H628.725C629.175 169.7 629.55 169.865 629.85 170.195C630.18 170.495 630.345 170.885 630.345 171.365V199.445H631.515C632.505 199.445 633 199.85 633 200.66V201.785C633 202.595 632.505 203 631.515 203H625.17ZM659.336 199.445C660.296 199.445 660.776 199.85 660.776 200.66V201.785C660.776 202.595 660.296 203 659.336 203H652.946C651.986 203 651.506 202.595 651.506 201.785V200.66C651.506 199.85 651.986 199.445 652.946 199.445H654.116V190.76C654.116 188.15 653.771 186.305 653.081 185.225C652.421 184.115 651.296 183.56 649.706 183.56C648.596 183.56 647.516 183.935 646.466 184.685C645.446 185.405 644.606 186.35 643.946 187.52C643.316 188.69 643.001 189.92 643.001 191.21V199.445H644.171C645.161 199.445 645.656 199.85 645.656 200.66V201.785C645.656 202.595 645.161 203 644.171 203H637.826C636.836 203 636.341 202.595 636.341 201.785V200.66C636.341 199.85 636.836 199.445 637.826 199.445H638.996V173.255H637.826C636.836 173.255 636.341 172.85 636.341 172.04V170.915C636.341 170.105 636.836 169.7 637.826 169.7H641.381C641.831 169.7 642.206 169.865 642.506 170.195C642.836 170.495 643.001 170.885 643.001 171.365V185.54C643.661 183.98 644.711 182.675 646.151 181.625C647.591 180.575 649.091 180.05 650.651 180.05C653.141 180.05 655.016 180.905 656.276 182.615C657.536 184.295 658.166 186.8 658.166 190.13V199.445H659.336ZM684.863 190.625C684.863 190.775 684.818 191.435 684.728 192.605H668.753C668.903 194.885 669.563 196.685 670.733 198.005C671.903 199.295 673.463 199.94 675.413 199.94C676.733 199.94 677.783 199.73 678.563 199.31C679.343 198.89 680.078 198.14 680.768 197.06C681.008 196.7 681.233 196.445 681.443 196.295C681.683 196.145 681.953 196.07 682.253 196.07C682.703 196.07 683.093 196.22 683.423 196.52C683.783 196.79 683.963 197.135 683.963 197.555C683.963 198.125 683.753 198.71 683.333 199.31C682.463 200.72 681.383 201.77 680.093 202.46C678.803 203.12 677.198 203.45 675.278 203.45C673.148 203.45 671.273 202.955 669.653 201.965C668.063 200.975 666.818 199.58 665.918 197.78C665.048 195.98 664.613 193.91 664.613 191.57C664.613 189.26 665.048 187.235 665.918 185.495C666.788 183.755 668.018 182.42 669.608 181.49C671.198 180.53 673.043 180.05 675.143 180.05C678.053 180.05 680.393 180.98 682.163 182.84C683.963 184.7 684.863 187.295 684.863 190.625ZM675.053 183.38C673.283 183.38 671.858 183.92 670.778 185C669.728 186.05 669.083 187.58 668.843 189.59H680.768C680.738 185.45 678.833 183.38 675.053 183.38ZM162.621 253.445C163.581 253.445 164.061 253.85 164.061 254.66V255.785C164.061 256.595 163.581 257 162.621 257H159.021C158.571 257 158.181 256.85 157.851 256.55C157.551 256.22 157.401 255.815 157.401 255.335V252.5C156.831 253.91 155.841 255.095 154.431 256.055C153.051 256.985 151.581 257.45 150.021 257.45C147.921 257.45 146.226 256.85 144.936 255.65C143.646 254.42 143.001 252.8 143.001 250.79C143.001 248.69 143.706 247.07 145.116 245.93C146.556 244.79 148.596 244.22 151.236 244.22C153.246 244.22 155.301 244.46 157.401 244.94V242.915C157.401 241.055 156.966 239.675 156.096 238.775C155.226 237.875 153.876 237.425 152.046 237.425C150.636 237.425 149.586 237.695 148.896 238.235C149.106 238.595 149.211 238.985 149.211 239.405C149.211 240.095 148.971 240.68 148.491 241.16C148.011 241.64 147.426 241.88 146.736 241.88C145.926 241.88 145.281 241.625 144.801 241.115C144.321 240.605 144.081 239.915 144.081 239.045C144.081 237.575 144.846 236.375 146.376 235.445C147.906 234.515 149.856 234.05 152.226 234.05C155.196 234.05 157.461 234.845 159.021 236.435C160.611 238.025 161.406 240.275 161.406 243.185V253.445H162.621ZM150.966 254.165C152.106 254.165 153.156 253.865 154.116 253.265C155.106 252.635 155.886 251.81 156.456 250.79C157.056 249.74 157.371 248.6 157.401 247.37C156.051 247.16 154.191 247.055 151.821 247.055C148.581 247.055 146.961 248.255 146.961 250.655C146.961 251.765 147.321 252.635 148.041 253.265C148.761 253.865 149.736 254.165 150.966 254.165ZM183.233 249.62C183.713 249.62 184.133 249.77 184.493 250.07C184.853 250.34 185.033 250.685 185.033 251.105C185.033 251.585 184.883 252.125 184.583 252.725C183.893 254.105 183.068 255.245 182.108 256.145C181.148 257.015 179.828 257.45 178.148 257.45C175.688 257.45 173.813 256.715 172.523 255.245C171.263 253.775 170.633 251.63 170.633 248.81V238.01H167.843C167.303 238.01 166.883 237.875 166.583 237.605C166.313 237.335 166.178 236.96 166.178 236.48V235.985C166.178 235.505 166.313 235.145 166.583 234.905C166.883 234.635 167.303 234.5 167.843 234.5H170.633V230.36C170.633 229.82 170.768 229.415 171.038 229.145C171.338 228.845 171.743 228.695 172.253 228.695H173.108C173.618 228.695 174.008 228.845 174.278 229.145C174.548 229.415 174.683 229.82 174.683 230.36V234.5H180.533C181.073 234.5 181.478 234.635 181.748 234.905C182.048 235.145 182.198 235.505 182.198 235.985V236.48C182.198 236.96 182.048 237.335 181.748 237.605C181.478 237.875 181.073 238.01 180.533 238.01H174.683V248.72C174.683 252.2 175.883 253.94 178.283 253.94C179.213 253.94 179.903 253.7 180.353 253.22C180.833 252.71 181.328 251.87 181.838 250.7C182.048 250.31 182.243 250.04 182.423 249.89C182.633 249.71 182.903 249.62 183.233 249.62ZM209.002 244.625C209.002 244.775 208.957 245.435 208.867 246.605H192.892C193.042 248.885 193.702 250.685 194.872 252.005C196.042 253.295 197.602 253.94 199.552 253.94C200.872 253.94 201.922 253.73 202.702 253.31C203.482 252.89 204.217 252.14 204.907 251.06C205.147 250.7 205.372 250.445 205.582 250.295C205.822 250.145 206.092 250.07 206.392 250.07C206.842 250.07 207.232 250.22 207.562 250.52C207.922 250.79 208.102 251.135 208.102 251.555C208.102 252.125 207.892 252.71 207.472 253.31C206.602 254.72 205.522 255.77 204.232 256.46C202.942 257.12 201.337 257.45 199.417 257.45C197.287 257.45 195.412 256.955 193.792 255.965C192.202 254.975 190.957 253.58 190.057 251.78C189.187 249.98 188.752 247.91 188.752 245.57C188.752 243.26 189.187 241.235 190.057 239.495C190.927 237.755 192.157 236.42 193.747 235.49C195.337 234.53 197.182 234.05 199.282 234.05C202.192 234.05 204.532 234.98 206.302 236.84C208.102 238.7 209.002 241.295 209.002 244.625ZM199.192 237.38C197.422 237.38 195.997 237.92 194.917 239C193.867 240.05 193.222 241.58 192.982 243.59H204.907C204.877 239.45 202.972 237.38 199.192 237.38ZM236.17 253.445C237.13 253.445 237.61 253.85 237.61 254.66V255.785C237.61 256.595 237.13 257 236.17 257H229.915C228.925 257 228.43 256.595 228.43 255.785V254.66C228.43 253.85 228.925 253.445 229.915 253.445H230.95V244.76C230.95 242.09 230.62 240.23 229.96 239.18C229.33 238.1 228.22 237.56 226.63 237.56C225.52 237.56 224.455 237.935 223.435 238.685C222.445 239.405 221.635 240.35 221.005 241.52C220.405 242.69 220.105 243.92 220.105 245.21V253.445H221.14C222.13 253.445 222.625 253.85 222.625 254.66V255.785C222.625 256.595 222.13 257 221.14 257H214.885C213.925 257 213.445 256.595 213.445 255.785V254.66C213.445 253.85 213.925 253.445 214.885 253.445H216.055V238.055H214.885C213.925 238.055 213.445 237.65 213.445 236.84V235.715C213.445 234.905 213.925 234.5 214.885 234.5H218.44C218.92 234.5 219.31 234.665 219.61 234.995C219.94 235.295 220.105 235.685 220.105 236.165V239.54C220.735 237.95 221.755 236.645 223.165 235.625C224.605 234.575 226.09 234.05 227.62 234.05C232.54 234.05 235 237.41 235 244.13V253.445H236.17ZM263.087 253.445C264.077 253.445 264.572 253.85 264.572 254.66V255.785C264.572 256.595 264.077 257 263.087 257H259.577C259.097 257 258.692 256.85 258.362 256.55C258.062 256.22 257.912 255.815 257.912 255.335V252.5C257.372 253.91 256.397 255.095 254.987 256.055C253.607 256.985 252.137 257.45 250.577 257.45C248.777 257.45 247.187 256.985 245.807 256.055C244.457 255.125 243.407 253.805 242.657 252.095C241.937 250.355 241.577 248.33 241.577 246.02C241.577 242.3 242.447 239.375 244.187 237.245C245.957 235.115 248.372 234.05 251.432 234.05C252.692 234.05 253.892 234.35 255.032 234.95C256.172 235.55 257.132 236.39 257.912 237.47V227.255H256.742C255.752 227.255 255.257 226.85 255.257 226.04V224.915C255.257 224.105 255.752 223.7 256.742 223.7H260.342C260.792 223.7 261.167 223.865 261.467 224.195C261.767 224.495 261.917 224.885 261.917 225.365V253.445H263.087ZM251.477 253.94C252.647 253.94 253.727 253.625 254.717 252.995C255.707 252.335 256.487 251.45 257.057 250.34C257.627 249.23 257.912 248.015 257.912 246.695V240.845C257.072 239.795 256.127 238.985 255.077 238.415C254.057 237.845 252.977 237.56 251.837 237.56C249.827 237.56 248.297 238.31 247.247 239.81C246.197 241.28 245.672 243.425 245.672 246.245C245.672 248.675 246.182 250.565 247.202 251.915C248.222 253.265 249.647 253.94 251.477 253.94ZM288.806 244.625C288.806 244.775 288.761 245.435 288.671 246.605H272.696C272.846 248.885 273.506 250.685 274.676 252.005C275.846 253.295 277.406 253.94 279.356 253.94C280.676 253.94 281.726 253.73 282.506 253.31C283.286 252.89 284.021 252.14 284.711 251.06C284.951 250.7 285.176 250.445 285.386 250.295C285.626 250.145 285.896 250.07 286.196 250.07C286.646 250.07 287.036 250.22 287.366 250.52C287.726 250.79 287.906 251.135 287.906 251.555C287.906 252.125 287.696 252.71 287.276 253.31C286.406 254.72 285.326 255.77 284.036 256.46C282.746 257.12 281.141 257.45 279.221 257.45C277.091 257.45 275.216 256.955 273.596 255.965C272.006 254.975 270.761 253.58 269.861 251.78C268.991 249.98 268.556 247.91 268.556 245.57C268.556 243.26 268.991 241.235 269.861 239.495C270.731 237.755 271.961 236.42 273.551 235.49C275.141 234.53 276.986 234.05 279.086 234.05C281.996 234.05 284.336 234.98 286.106 236.84C287.906 238.7 288.806 241.295 288.806 244.625ZM278.996 237.38C277.226 237.38 275.801 237.92 274.721 239C273.671 240.05 273.026 241.58 272.786 243.59H284.711C284.681 239.45 282.776 237.38 278.996 237.38ZM306.704 234.05C307.904 234.05 308.819 234.335 309.449 234.905C310.079 235.445 310.394 236.21 310.394 237.2C310.394 237.98 310.139 238.64 309.629 239.18C309.119 239.69 308.459 239.945 307.649 239.945C306.929 239.945 306.329 239.735 305.849 239.315C305.369 238.865 305.099 238.295 305.039 237.605C304.109 237.695 303.254 238.145 302.474 238.955C301.694 239.735 301.064 240.755 300.584 242.015C300.134 243.245 299.909 244.565 299.909 245.975V253.445H302.024C303.014 253.445 303.509 253.85 303.509 254.66V255.785C303.509 256.595 303.014 257 302.024 257H294.689C293.729 257 293.249 256.595 293.249 255.785V254.66C293.249 253.85 293.729 253.445 294.689 253.445H295.859V238.055H294.689C293.729 238.055 293.249 237.65 293.249 236.84V235.715C293.249 234.905 293.729 234.5 294.689 234.5H298.244C298.724 234.5 299.114 234.665 299.414 234.995C299.744 235.295 299.909 235.685 299.909 236.165V240.125C300.449 238.265 301.319 236.795 302.519 235.715C303.749 234.605 305.144 234.05 306.704 234.05ZM333.587 244.625C333.587 244.775 333.542 245.435 333.452 246.605H317.477C317.627 248.885 318.287 250.685 319.457 252.005C320.627 253.295 322.187 253.94 324.137 253.94C325.457 253.94 326.507 253.73 327.287 253.31C328.067 252.89 328.802 252.14 329.492 251.06C329.732 250.7 329.957 250.445 330.167 250.295C330.407 250.145 330.677 250.07 330.977 250.07C331.427 250.07 331.817 250.22 332.147 250.52C332.507 250.79 332.687 251.135 332.687 251.555C332.687 252.125 332.477 252.71 332.057 253.31C331.187 254.72 330.107 255.77 328.817 256.46C327.527 257.12 325.922 257.45 324.002 257.45C321.872 257.45 319.997 256.955 318.377 255.965C316.787 254.975 315.542 253.58 314.642 251.78C313.772 249.98 313.337 247.91 313.337 245.57C313.337 243.26 313.772 241.235 314.642 239.495C315.512 237.755 316.742 236.42 318.332 235.49C319.922 234.53 321.767 234.05 323.867 234.05C326.777 234.05 329.117 234.98 330.887 236.84C332.687 238.7 333.587 241.295 333.587 244.625ZM323.777 237.38C322.007 237.38 320.582 237.92 319.502 239C318.452 240.05 317.807 241.58 317.567 243.59H329.492C329.462 239.45 327.557 237.38 323.777 237.38ZM374.12 253.445C375.08 253.445 375.56 253.85 375.56 254.66V255.785C375.56 256.595 375.08 257 374.12 257H367.865C366.875 257 366.38 256.595 366.38 255.785V254.66C366.38 253.85 366.875 253.445 367.865 253.445H368.9V244.76C368.9 242.9 368.78 241.46 368.54 240.44C368.3 239.42 367.895 238.685 367.325 238.235C366.785 237.785 366.005 237.56 364.985 237.56C363.935 237.56 362.93 237.92 361.97 238.64C361.01 239.36 360.245 240.305 359.675 241.475C359.105 242.645 358.82 243.89 358.82 245.21V253.445H359.855C360.845 253.445 361.34 253.85 361.34 254.66V255.785C361.34 256.595 360.845 257 359.855 257H353.735C352.745 257 352.25 256.595 352.25 255.785V254.66C352.25 253.85 352.745 253.445 353.735 253.445H354.77V244.76C354.77 242.9 354.65 241.46 354.41 240.44C354.17 239.42 353.765 238.685 353.195 238.235C352.655 237.785 351.875 237.56 350.855 237.56C349.805 237.56 348.8 237.92 347.84 238.64C346.91 239.36 346.145 240.305 345.545 241.475C344.975 242.645 344.69 243.89 344.69 245.21V253.445H345.725C346.715 253.445 347.21 253.85 347.21 254.66V255.785C347.21 256.595 346.715 257 345.725 257H339.47C338.51 257 338.03 256.595 338.03 255.785V254.66C338.03 253.85 338.51 253.445 339.47 253.445H340.64V238.055H339.47C338.51 238.055 338.03 237.65 338.03 236.84V235.715C338.03 234.905 338.51 234.5 339.47 234.5H343.025C343.505 234.5 343.895 234.665 344.195 234.995C344.525 235.295 344.69 235.685 344.69 236.165V239.495C345.32 237.905 346.295 236.6 347.615 235.58C348.965 234.56 350.36 234.05 351.8 234.05C353.6 234.05 355.04 234.515 356.12 235.445C357.23 236.375 357.995 237.8 358.415 239.72C359.285 237.92 360.38 236.525 361.7 235.535C363.02 234.545 364.43 234.05 365.93 234.05C368.3 234.05 370.055 234.875 371.195 236.525C372.365 238.175 372.95 240.71 372.95 244.13V253.445H374.12ZM390.051 257.45C387.921 257.45 386.046 256.985 384.426 256.055C382.806 255.095 381.561 253.745 380.691 252.005C379.821 250.265 379.386 248.255 379.386 245.975C379.386 243.605 379.836 241.52 380.736 239.72C381.636 237.92 382.896 236.525 384.516 235.535C386.136 234.545 388.026 234.05 390.186 234.05C392.316 234.05 394.191 234.53 395.811 235.49C397.431 236.42 398.676 237.755 399.546 239.495C400.416 241.235 400.851 243.245 400.851 245.525C400.851 247.895 400.401 249.98 399.501 251.78C398.601 253.58 397.341 254.975 395.721 255.965C394.101 256.955 392.211 257.45 390.051 257.45ZM390.051 253.94C392.181 253.94 393.831 253.205 395.001 251.735C396.171 250.265 396.756 248.21 396.756 245.57C396.756 242.99 396.186 241.01 395.046 239.63C393.906 238.25 392.286 237.56 390.186 237.56C388.086 237.56 386.436 238.31 385.236 239.81C384.066 241.28 383.481 243.32 383.481 245.93C383.481 248.48 384.051 250.46 385.191 251.87C386.331 253.25 387.951 253.94 390.051 253.94ZM415.929 243.905C418.749 244.715 420.744 245.645 421.914 246.695C423.084 247.715 423.669 249.08 423.669 250.79C423.669 252.08 423.294 253.235 422.544 254.255C421.794 255.245 420.729 256.025 419.349 256.595C417.999 257.165 416.439 257.45 414.669 257.45C411.879 257.45 409.644 256.925 407.964 255.875C406.314 254.795 405.489 253.4 405.489 251.69C405.489 250.82 405.729 250.13 406.209 249.62C406.689 249.11 407.334 248.855 408.144 248.855C408.834 248.855 409.404 249.095 409.854 249.575C410.334 250.055 410.574 250.64 410.574 251.33C410.574 251.96 410.379 252.47 409.989 252.86C410.709 253.88 412.254 254.39 414.624 254.39C416.244 254.39 417.474 254.105 418.314 253.535C419.184 252.965 419.619 252.2 419.619 251.24C419.619 250.61 419.484 250.1 419.214 249.71C418.944 249.29 418.464 248.93 417.774 248.63C417.114 248.3 416.094 247.94 414.714 247.55C412.464 246.92 410.709 246.29 409.449 245.66C408.219 245 407.334 244.28 406.794 243.5C406.254 242.69 405.984 241.685 405.984 240.485C405.984 239.225 406.359 238.115 407.109 237.155C407.859 236.165 408.894 235.4 410.214 234.86C411.564 234.32 413.094 234.05 414.804 234.05C417.474 234.05 419.559 234.53 421.059 235.49C422.559 236.42 423.309 237.725 423.309 239.405C423.309 240.275 423.069 240.98 422.589 241.52C422.109 242.03 421.479 242.285 420.699 242.285C419.979 242.285 419.379 242.045 418.899 241.565C418.449 241.085 418.224 240.485 418.224 239.765C418.224 239.135 418.419 238.625 418.809 238.235C418.149 237.485 416.799 237.11 414.759 237.11C413.349 237.11 412.209 237.41 411.339 238.01C410.469 238.61 410.034 239.39 410.034 240.35C410.034 240.86 410.199 241.295 410.529 241.655C410.859 242.015 411.429 242.36 412.239 242.69C413.079 243.02 414.309 243.425 415.929 243.905ZM462.423 253.445C463.413 253.445 463.908 253.85 463.908 254.66V255.785C463.908 256.595 463.413 257 462.423 257H458.913C458.433 257 458.028 256.85 457.698 256.55C457.398 256.22 457.248 255.815 457.248 255.335V252.5C456.708 253.91 455.733 255.095 454.323 256.055C452.943 256.985 451.473 257.45 449.913 257.45C448.113 257.45 446.523 256.985 445.143 256.055C443.793 255.125 442.743 253.805 441.993 252.095C441.273 250.355 440.913 248.33 440.913 246.02C440.913 242.3 441.783 239.375 443.523 237.245C445.293 235.115 447.708 234.05 450.768 234.05C452.028 234.05 453.228 234.35 454.368 234.95C455.508 235.55 456.468 236.39 457.248 237.47V227.255H456.078C455.088 227.255 454.593 226.85 454.593 226.04V224.915C454.593 224.105 455.088 223.7 456.078 223.7H459.678C460.128 223.7 460.503 223.865 460.803 224.195C461.103 224.495 461.253 224.885 461.253 225.365V253.445H462.423ZM450.813 253.94C451.983 253.94 453.063 253.625 454.053 252.995C455.043 252.335 455.823 251.45 456.393 250.34C456.963 249.23 457.248 248.015 457.248 246.695V240.845C456.408 239.795 455.463 238.985 454.413 238.415C453.393 237.845 452.313 237.56 451.173 237.56C449.163 237.56 447.633 238.31 446.583 239.81C445.533 241.28 445.008 243.425 445.008 246.245C445.008 248.675 445.518 250.565 446.538 251.915C447.558 253.265 448.983 253.94 450.813 253.94ZM488.142 244.625C488.142 244.775 488.097 245.435 488.007 246.605H472.032C472.182 248.885 472.842 250.685 474.012 252.005C475.182 253.295 476.742 253.94 478.692 253.94C480.012 253.94 481.062 253.73 481.842 253.31C482.622 252.89 483.357 252.14 484.047 251.06C484.287 250.7 484.512 250.445 484.722 250.295C484.962 250.145 485.232 250.07 485.532 250.07C485.982 250.07 486.372 250.22 486.702 250.52C487.062 250.79 487.242 251.135 487.242 251.555C487.242 252.125 487.032 252.71 486.612 253.31C485.742 254.72 484.662 255.77 483.372 256.46C482.082 257.12 480.477 257.45 478.557 257.45C476.427 257.45 474.552 256.955 472.932 255.965C471.342 254.975 470.097 253.58 469.197 251.78C468.327 249.98 467.892 247.91 467.892 245.57C467.892 243.26 468.327 241.235 469.197 239.495C470.067 237.755 471.297 236.42 472.887 235.49C474.477 234.53 476.322 234.05 478.422 234.05C481.332 234.05 483.672 234.98 485.442 236.84C487.242 238.7 488.142 241.295 488.142 244.625ZM478.332 237.38C476.562 237.38 475.137 237.92 474.057 239C473.007 240.05 472.362 241.58 472.122 243.59H484.047C484.017 239.45 482.112 237.38 478.332 237.38ZM519.469 230.45C518.779 230.45 518.194 230.21 517.714 229.73C517.264 229.25 517.039 228.665 517.039 227.975C517.039 227.555 517.129 227.195 517.309 226.895C516.979 226.805 516.604 226.76 516.184 226.76C514.984 226.76 514.084 227.135 513.484 227.885C512.914 228.635 512.629 229.79 512.629 231.35V234.5H518.164C519.274 234.5 519.829 234.995 519.829 235.985V236.48C519.829 236.96 519.694 237.335 519.424 237.605C519.154 237.875 518.734 238.01 518.164 238.01H512.629V253.445H514.789C515.749 253.445 516.229 253.85 516.229 254.66V255.785C516.229 256.595 515.749 257 514.789 257H507.454C506.464 257 505.969 256.595 505.969 255.785V254.66C505.969 253.85 506.464 253.445 507.454 253.445H508.624V238.01H505.789C505.249 238.01 504.829 237.875 504.529 237.605C504.259 237.335 504.124 236.96 504.124 236.48V235.985C504.124 235.535 504.259 235.175 504.529 234.905C504.829 234.635 505.249 234.5 505.789 234.5H508.624V230.99C508.624 228.62 509.299 226.745 510.649 225.365C512.029 223.955 513.859 223.25 516.139 223.25C517.879 223.25 519.304 223.67 520.414 224.51C521.554 225.32 522.124 226.355 522.124 227.615C522.124 228.485 521.884 229.175 521.404 229.685C520.924 230.195 520.279 230.45 519.469 230.45ZM533.181 257.45C531.051 257.45 529.176 256.985 527.556 256.055C525.936 255.095 524.691 253.745 523.821 252.005C522.951 250.265 522.516 248.255 522.516 245.975C522.516 243.605 522.966 241.52 523.866 239.72C524.766 237.92 526.026 236.525 527.646 235.535C529.266 234.545 531.156 234.05 533.316 234.05C535.446 234.05 537.321 234.53 538.941 235.49C540.561 236.42 541.806 237.755 542.676 239.495C543.546 241.235 543.981 243.245 543.981 245.525C543.981 247.895 543.531 249.98 542.631 251.78C541.731 253.58 540.471 254.975 538.851 255.965C537.231 256.955 535.341 257.45 533.181 257.45ZM533.181 253.94C535.311 253.94 536.961 253.205 538.131 251.735C539.301 250.265 539.886 248.21 539.886 245.57C539.886 242.99 539.316 241.01 538.176 239.63C537.036 238.25 535.416 237.56 533.316 237.56C531.216 237.56 529.566 238.31 528.366 239.81C527.196 241.28 526.611 243.32 526.611 245.93C526.611 248.48 527.181 250.46 528.321 251.87C529.461 253.25 531.081 253.94 533.181 253.94ZM561.939 234.05C563.139 234.05 564.054 234.335 564.684 234.905C565.314 235.445 565.629 236.21 565.629 237.2C565.629 237.98 565.374 238.64 564.864 239.18C564.354 239.69 563.694 239.945 562.884 239.945C562.164 239.945 561.564 239.735 561.084 239.315C560.604 238.865 560.334 238.295 560.274 237.605C559.344 237.695 558.489 238.145 557.709 238.955C556.929 239.735 556.299 240.755 555.819 242.015C555.369 243.245 555.144 244.565 555.144 245.975V253.445H557.259C558.249 253.445 558.744 253.85 558.744 254.66V255.785C558.744 256.595 558.249 257 557.259 257H549.924C548.964 257 548.484 256.595 548.484 255.785V254.66C548.484 253.85 548.964 253.445 549.924 253.445H551.094V238.055H549.924C548.964 238.055 548.484 237.65 548.484 236.84V235.715C548.484 234.905 548.964 234.5 549.924 234.5H553.479C553.959 234.5 554.349 234.665 554.649 234.995C554.979 235.295 555.144 235.685 555.144 236.165V240.125C555.684 238.265 556.554 236.795 557.754 235.715C558.984 234.605 560.379 234.05 561.939 234.05ZM605.536 253.445C606.496 253.445 606.976 253.85 606.976 254.66V255.785C606.976 256.595 606.496 257 605.536 257H599.281C598.291 257 597.796 256.595 597.796 255.785V254.66C597.796 253.85 598.291 253.445 599.281 253.445H600.316V244.76C600.316 242.9 600.196 241.46 599.956 240.44C599.716 239.42 599.311 238.685 598.741 238.235C598.201 237.785 597.421 237.56 596.401 237.56C595.351 237.56 594.346 237.92 593.386 238.64C592.426 239.36 591.661 240.305 591.091 241.475C590.521 242.645 590.236 243.89 590.236 245.21V253.445H591.271C592.261 253.445 592.756 253.85 592.756 254.66V255.785C592.756 256.595 592.261 257 591.271 257H585.151C584.161 257 583.666 256.595 583.666 255.785V254.66C583.666 253.85 584.161 253.445 585.151 253.445H586.186V244.76C586.186 242.9 586.066 241.46 585.826 240.44C585.586 239.42 585.181 238.685 584.611 238.235C584.071 237.785 583.291 237.56 582.271 237.56C581.221 237.56 580.216 237.92 579.256 238.64C578.326 239.36 577.561 240.305 576.961 241.475C576.391 242.645 576.106 243.89 576.106 245.21V253.445H577.141C578.131 253.445 578.626 253.85 578.626 254.66V255.785C578.626 256.595 578.131 257 577.141 257H570.886C569.926 257 569.446 256.595 569.446 255.785V254.66C569.446 253.85 569.926 253.445 570.886 253.445H572.056V238.055H570.886C569.926 238.055 569.446 237.65 569.446 236.84V235.715C569.446 234.905 569.926 234.5 570.886 234.5H574.441C574.921 234.5 575.311 234.665 575.611 234.995C575.941 235.295 576.106 235.685 576.106 236.165V239.495C576.736 237.905 577.711 236.6 579.031 235.58C580.381 234.56 581.776 234.05 583.216 234.05C585.016 234.05 586.456 234.515 587.536 235.445C588.646 236.375 589.411 237.8 589.831 239.72C590.701 237.92 591.796 236.525 593.116 235.535C594.436 234.545 595.846 234.05 597.346 234.05C599.716 234.05 601.471 234.875 602.611 236.525C603.781 238.175 604.366 240.71 604.366 244.13V253.445H605.536ZM630.287 253.445C631.247 253.445 631.727 253.85 631.727 254.66V255.785C631.727 256.595 631.247 257 630.287 257H626.687C626.237 257 625.847 256.85 625.517 256.55C625.217 256.22 625.067 255.815 625.067 255.335V252.5C624.497 253.91 623.507 255.095 622.097 256.055C620.717 256.985 619.247 257.45 617.687 257.45C615.587 257.45 613.892 256.85 612.602 255.65C611.312 254.42 610.667 252.8 610.667 250.79C610.667 248.69 611.372 247.07 612.782 245.93C614.222 244.79 616.262 244.22 618.902 244.22C620.912 244.22 622.967 244.46 625.067 244.94V242.915C625.067 241.055 624.632 239.675 623.762 238.775C622.892 237.875 621.542 237.425 619.712 237.425C618.302 237.425 617.252 237.695 616.562 238.235C616.772 238.595 616.877 238.985 616.877 239.405C616.877 240.095 616.637 240.68 616.157 241.16C615.677 241.64 615.092 241.88 614.402 241.88C613.592 241.88 612.947 241.625 612.467 241.115C611.987 240.605 611.747 239.915 611.747 239.045C611.747 237.575 612.512 236.375 614.042 235.445C615.572 234.515 617.522 234.05 619.892 234.05C622.862 234.05 625.127 234.845 626.687 236.435C628.277 238.025 629.072 240.275 629.072 243.185V253.445H630.287ZM618.632 254.165C619.772 254.165 620.822 253.865 621.782 253.265C622.772 252.635 623.552 251.81 624.122 250.79C624.722 249.74 625.037 248.6 625.067 247.37C623.717 247.16 621.857 247.055 619.487 247.055C616.247 247.055 614.627 248.255 614.627 250.655C614.627 251.765 614.987 252.635 615.707 253.265C616.427 253.865 617.402 254.165 618.632 254.165ZM309.097 302.675C309.487 302.675 309.787 302.81 309.997 303.08C310.207 303.32 310.312 303.68 310.312 304.16V309.245C310.312 309.725 310.132 310.145 309.772 310.505C309.442 310.835 309.022 311 308.512 311H288.487C287.497 311 287.002 310.595 287.002 309.785V308.66C287.002 307.85 287.497 307.445 288.487 307.445H289.657V283.055H288.487C287.497 283.055 287.002 282.65 287.002 281.84V280.715C287.002 279.905 287.497 279.5 288.487 279.5H308.287C308.797 279.5 309.217 279.68 309.547 280.04C309.877 280.37 310.042 280.79 310.042 281.3V285.485C310.042 286.475 309.652 286.97 308.872 286.97H307.702C306.922 286.97 306.532 286.475 306.532 285.485V283.055H293.707V292.91H303.607C303.967 292.91 304.267 293.045 304.507 293.315C304.777 293.555 304.912 293.855 304.912 294.215V295.16C304.912 295.52 304.777 295.835 304.507 296.105C304.267 296.345 303.967 296.465 303.607 296.465H293.707V307.445H306.757V304.16C306.757 303.17 307.162 302.675 307.972 302.675H309.097ZM336.928 307.445C337.888 307.445 338.368 307.85 338.368 308.66V309.785C338.368 310.595 337.888 311 336.928 311H329.998C329.008 311 328.513 310.595 328.513 309.785V308.66C328.513 307.85 329.008 307.445 329.998 307.445H332.473C331.423 307.445 330.583 307.085 329.953 306.365L326.263 301.685L321.718 307.445H322.438C323.398 307.445 323.878 307.85 323.878 308.66V309.785C323.878 310.595 323.398 311 322.438 311H316.498C315.538 311 315.058 310.595 315.058 309.785V308.66C315.058 307.85 315.538 307.445 316.498 307.445H317.713L324.058 299.39L318.028 292.055H316.768C315.778 292.055 315.283 291.65 315.283 290.84V289.715C315.283 288.905 315.778 288.5 316.768 288.5H323.518C324.478 288.5 324.958 288.905 324.958 289.715V290.84C324.958 291.65 324.478 292.055 323.518 292.055H321.223C322.303 292.055 323.128 292.415 323.698 293.135L327.118 297.455L331.393 292.055H330.763C329.803 292.055 329.323 291.65 329.323 290.84V289.715C329.323 288.905 329.803 288.5 330.763 288.5H336.793C337.753 288.5 338.233 288.905 338.233 289.715V290.84C338.233 291.65 337.753 292.055 336.793 292.055H335.218L329.233 299.615L335.668 307.445H336.928ZM359.211 304.07C359.661 304.07 360.051 304.22 360.381 304.52C360.741 304.79 360.921 305.135 360.921 305.555C360.921 306.125 360.711 306.71 360.291 307.31C359.421 308.72 358.341 309.77 357.051 310.46C355.761 311.12 354.156 311.45 352.236 311.45C350.106 311.45 348.231 310.955 346.611 309.965C345.021 308.975 343.776 307.58 342.876 305.78C342.006 303.98 341.571 301.91 341.571 299.57C341.571 297.26 342.006 295.235 342.876 293.495C343.776 291.755 345.021 290.42 346.611 289.49C348.201 288.53 350.046 288.05 352.146 288.05C353.886 288.05 355.431 288.35 356.781 288.95C358.131 289.55 359.181 290.405 359.931 291.515C360.681 292.595 361.056 293.825 361.056 295.205C361.056 296.135 360.801 296.87 360.291 297.41C359.781 297.95 359.106 298.22 358.266 298.22C357.516 298.22 356.886 297.98 356.376 297.5C355.896 297.02 355.656 296.42 355.656 295.7C355.656 294.86 355.941 294.185 356.511 293.675C356.151 292.985 355.581 292.46 354.801 292.1C354.051 291.74 353.121 291.56 352.011 291.56C349.971 291.56 348.396 292.25 347.286 293.63C346.206 295.01 345.666 296.975 345.666 299.525C345.666 302.135 346.251 304.19 347.421 305.69C348.621 307.19 350.271 307.94 352.371 307.94C353.691 307.94 354.741 307.73 355.521 307.31C356.301 306.89 357.036 306.14 357.726 305.06C357.966 304.7 358.191 304.445 358.401 304.295C358.641 304.145 358.911 304.07 359.211 304.07ZM366.463 311C365.473 311 364.978 310.595 364.978 309.785V308.66C364.978 307.85 365.473 307.445 366.463 307.445H367.633V281.255H366.463C365.473 281.255 364.978 280.85 364.978 280.04V278.915C364.978 278.105 365.473 277.7 366.463 277.7H370.018C370.468 277.7 370.843 277.865 371.143 278.195C371.473 278.495 371.638 278.885 371.638 279.365V307.445H372.808C373.798 307.445 374.293 307.85 374.293 308.66V309.785C374.293 310.595 373.798 311 372.808 311H366.463ZM399.91 307.445C400.87 307.445 401.35 307.85 401.35 308.66V309.785C401.35 310.595 400.87 311 399.91 311H396.355C395.875 311 395.47 310.85 395.14 310.55C394.84 310.22 394.69 309.815 394.69 309.335V305.96C394.03 307.55 393.01 308.87 391.63 309.92C390.28 310.94 388.84 311.45 387.31 311.45C384.85 311.45 383.02 310.625 381.82 308.975C380.65 307.325 380.065 304.79 380.065 301.37V292.055H378.895C377.935 292.055 377.455 291.65 377.455 290.84V289.715C377.455 288.905 377.935 288.5 378.895 288.5H382.54C382.96 288.5 383.32 288.665 383.62 288.995C383.95 289.295 384.115 289.685 384.115 290.165V300.74C384.115 302.57 384.235 303.995 384.475 305.015C384.745 306.035 385.18 306.785 385.78 307.265C386.41 307.715 387.25 307.94 388.3 307.94C389.38 307.94 390.415 307.58 391.405 306.86C392.395 306.14 393.19 305.195 393.79 304.025C394.39 302.825 394.69 301.58 394.69 300.29V292.055H393.52C392.53 292.055 392.035 291.65 392.035 290.84V289.715C392.035 288.905 392.53 288.5 393.52 288.5H397.12C397.6 288.5 397.99 288.665 398.29 288.995C398.59 289.295 398.74 289.685 398.74 290.165V307.445H399.91ZM415.687 297.905C418.507 298.715 420.502 299.645 421.672 300.695C422.842 301.715 423.427 303.08 423.427 304.79C423.427 306.08 423.052 307.235 422.302 308.255C421.552 309.245 420.487 310.025 419.107 310.595C417.757 311.165 416.197 311.45 414.427 311.45C411.637 311.45 409.402 310.925 407.722 309.875C406.072 308.795 405.247 307.4 405.247 305.69C405.247 304.82 405.487 304.13 405.967 303.62C406.447 303.11 407.092 302.855 407.902 302.855C408.592 302.855 409.162 303.095 409.612 303.575C410.092 304.055 410.332 304.64 410.332 305.33C410.332 305.96 410.137 306.47 409.747 306.86C410.467 307.88 412.012 308.39 414.382 308.39C416.002 308.39 417.232 308.105 418.072 307.535C418.942 306.965 419.377 306.2 419.377 305.24C419.377 304.61 419.242 304.1 418.972 303.71C418.702 303.29 418.222 302.93 417.532 302.63C416.872 302.3 415.852 301.94 414.472 301.55C412.222 300.92 410.467 300.29 409.207 299.66C407.977 299 407.092 298.28 406.552 297.5C406.012 296.69 405.742 295.685 405.742 294.485C405.742 293.225 406.117 292.115 406.867 291.155C407.617 290.165 408.652 289.4 409.972 288.86C411.322 288.32 412.852 288.05 414.562 288.05C417.232 288.05 419.317 288.53 420.817 289.49C422.317 290.42 423.067 291.725 423.067 293.405C423.067 294.275 422.827 294.98 422.347 295.52C421.867 296.03 421.237 296.285 420.457 296.285C419.737 296.285 419.137 296.045 418.657 295.565C418.207 295.085 417.982 294.485 417.982 293.765C417.982 293.135 418.177 292.625 418.567 292.235C417.907 291.485 416.557 291.11 414.517 291.11C413.107 291.11 411.967 291.41 411.097 292.01C410.227 292.61 409.792 293.39 409.792 294.35C409.792 294.86 409.957 295.295 410.287 295.655C410.617 296.015 411.187 296.36 411.997 296.69C412.837 297.02 414.067 297.425 415.687 297.905ZM431.923 284.135C431.083 284.135 430.378 283.85 429.808 283.28C429.238 282.71 428.953 282.005 428.953 281.165C428.953 280.325 429.238 279.635 429.808 279.095C430.378 278.525 431.083 278.24 431.923 278.24C432.763 278.24 433.453 278.525 433.993 279.095C434.563 279.635 434.848 280.325 434.848 281.165C434.848 282.005 434.563 282.71 433.993 283.28C433.453 283.85 432.763 284.135 431.923 284.135ZM429.448 311C428.488 311 428.008 310.595 428.008 309.785V308.66C428.008 307.85 428.488 307.445 429.448 307.445H430.618V292.055H429.448C428.488 292.055 428.008 291.65 428.008 290.84V289.715C428.008 288.905 428.488 288.5 429.448 288.5H433.003C433.483 288.5 433.873 288.665 434.173 288.995C434.503 289.295 434.668 289.685 434.668 290.165V307.445H435.838C436.828 307.445 437.323 307.85 437.323 308.66V309.785C437.323 310.595 436.828 311 435.838 311H429.448ZM462.523 288.5C463.483 288.5 463.963 288.905 463.963 289.715V290.84C463.963 291.65 463.483 292.055 462.523 292.055H461.353L453.973 310.055C453.733 310.685 453.268 311 452.578 311H451.363C450.733 311 450.268 310.685 449.968 310.055L442.633 292.055H441.463C440.473 292.055 439.978 291.65 439.978 290.84V289.715C439.978 288.905 440.473 288.5 441.463 288.5H447.628C448.588 288.5 449.068 288.905 449.068 289.715V290.84C449.068 291.65 448.588 292.055 447.628 292.055H446.863L452.173 305.33L457.483 292.055H456.583C455.593 292.055 455.098 291.65 455.098 290.84V289.715C455.098 288.905 455.593 288.5 456.583 288.5H462.523ZM486.872 307.445C487.832 307.445 488.312 307.85 488.312 308.66V309.785C488.312 310.595 487.832 311 486.872 311H483.272C482.822 311 482.432 310.85 482.102 310.55C481.802 310.22 481.652 309.815 481.652 309.335V306.5C481.082 307.91 480.092 309.095 478.682 310.055C477.302 310.985 475.832 311.45 474.272 311.45C472.172 311.45 470.477 310.85 469.187 309.65C467.897 308.42 467.252 306.8 467.252 304.79C467.252 302.69 467.957 301.07 469.367 299.93C470.807 298.79 472.847 298.22 475.487 298.22C477.497 298.22 479.552 298.46 481.652 298.94V296.915C481.652 295.055 481.217 293.675 480.347 292.775C479.477 291.875 478.127 291.425 476.297 291.425C474.887 291.425 473.837 291.695 473.147 292.235C473.357 292.595 473.462 292.985 473.462 293.405C473.462 294.095 473.222 294.68 472.742 295.16C472.262 295.64 471.677 295.88 470.987 295.88C470.177 295.88 469.532 295.625 469.052 295.115C468.572 294.605 468.332 293.915 468.332 293.045C468.332 291.575 469.097 290.375 470.627 289.445C472.157 288.515 474.107 288.05 476.477 288.05C479.447 288.05 481.712 288.845 483.272 290.435C484.862 292.025 485.657 294.275 485.657 297.185V307.445H486.872ZM475.217 308.165C476.357 308.165 477.407 307.865 478.367 307.265C479.357 306.635 480.137 305.81 480.707 304.79C481.307 303.74 481.622 302.6 481.652 301.37C480.302 301.16 478.442 301.055 476.072 301.055C472.832 301.055 471.212 302.255 471.212 304.655C471.212 305.765 471.572 306.635 472.292 307.265C473.012 307.865 473.987 308.165 475.217 308.165Z" fill="#0E5D89"/>
<path d="M106.834 196.07C107.284 196.07 107.674 196.22 108.004 196.52C108.364 196.79 108.544 197.135 108.544 197.555C108.544 198.125 108.334 198.71 107.914 199.31C107.044 200.72 105.964 201.77 104.674 202.46C103.384 203.12 101.779 203.45 99.8585 203.45C97.7285 203.45 95.8535 202.955 94.2335 201.965C92.6435 200.975 91.3985 199.58 90.4985 197.78C89.6285 195.98 89.1935 193.91 89.1935 191.57C89.1935 189.26 89.6285 187.235 90.4985 185.495C91.3985 183.755 92.6435 182.42 94.2335 181.49C95.8235 180.53 97.6685 180.05 99.7685 180.05C101.509 180.05 103.054 180.35 104.404 180.95C105.754 181.55 106.804 182.405 107.554 183.515C108.304 184.595 108.679 185.825 108.679 187.205C108.679 188.135 108.424 188.87 107.914 189.41C107.404 189.95 106.729 190.22 105.889 190.22C105.139 190.22 104.509 189.98 103.999 189.5C103.519 189.02 103.279 188.42 103.279 187.7C103.279 186.86 103.564 186.185 104.134 185.675C103.774 184.985 103.204 184.46 102.424 184.1C101.674 183.74 100.744 183.56 99.6335 183.56C97.5935 183.56 96.0185 184.25 94.9085 185.63C93.8285 187.01 93.2885 188.975 93.2885 191.525C93.2885 194.135 93.8735 196.19 95.0435 197.69C96.2435 199.19 97.8935 199.94 99.9935 199.94C101.314 199.94 102.364 199.73 103.144 199.31C103.924 198.89 104.659 198.14 105.349 197.06C105.589 196.7 105.814 196.445 106.024 196.295C106.264 196.145 106.534 196.07 106.834 196.07ZM114.086 203C113.096 203 112.601 202.595 112.601 201.785V200.66C112.601 199.85 113.096 199.445 114.086 199.445H115.256V173.255H114.086C113.096 173.255 112.601 172.85 112.601 172.04V170.915C112.601 170.105 113.096 169.7 114.086 169.7H117.641C118.091 169.7 118.466 169.865 118.766 170.195C119.096 170.495 119.261 170.885 119.261 171.365V199.445H120.431C121.421 199.445 121.916 199.85 121.916 200.66V201.785C121.916 202.595 121.421 203 120.431 203H114.086ZM129.667 176.135C128.827 176.135 128.122 175.85 127.552 175.28C126.982 174.71 126.697 174.005 126.697 173.165C126.697 172.325 126.982 171.635 127.552 171.095C128.122 170.525 128.827 170.24 129.667 170.24C130.507 170.24 131.197 170.525 131.737 171.095C132.307 171.635 132.592 172.325 132.592 173.165C132.592 174.005 132.307 174.71 131.737 175.28C131.197 175.85 130.507 176.135 129.667 176.135ZM127.192 203C126.232 203 125.752 202.595 125.752 201.785V200.66C125.752 199.85 126.232 199.445 127.192 199.445H128.362V184.055H127.192C126.232 184.055 125.752 183.65 125.752 182.84V181.715C125.752 180.905 126.232 180.5 127.192 180.5H130.747C131.227 180.5 131.617 180.665 131.917 180.995C132.247 181.295 132.412 181.685 132.412 182.165V199.445H133.582C134.572 199.445 135.067 199.85 135.067 200.66V201.785C135.067 202.595 134.572 203 133.582 203H127.192ZM160.673 209.795C161.663 209.795 162.158 210.2 162.158 211.01V212.135C162.158 212.945 161.663 213.35 160.673 213.35H154.328C153.338 213.35 152.843 212.945 152.843 212.135V211.01C152.843 210.2 153.338 209.795 154.328 209.795H155.498V198.5C154.958 199.91 153.983 201.095 152.573 202.055C151.193 202.985 149.723 203.45 148.163 203.45C146.363 203.45 144.773 202.985 143.393 202.055C142.043 201.125 140.993 199.805 140.243 198.095C139.523 196.355 139.163 194.33 139.163 192.02C139.163 188.3 140.033 185.375 141.773 183.245C143.543 181.115 145.958 180.05 149.018 180.05C150.338 180.05 151.583 180.38 152.753 181.04C153.953 181.67 154.958 182.57 155.768 183.74L155.948 181.715C156.038 180.785 156.533 180.32 157.433 180.32H157.928C158.408 180.32 158.783 180.455 159.053 180.725C159.353 180.995 159.503 181.4 159.503 181.94V209.795H160.673ZM149.063 199.94C150.233 199.94 151.313 199.625 152.303 198.995C153.293 198.335 154.073 197.45 154.643 196.34C155.213 195.23 155.498 194.015 155.498 192.695V186.845C154.658 185.795 153.713 184.985 152.663 184.415C151.643 183.845 150.563 183.56 149.423 183.56C147.413 183.56 145.883 184.31 144.833 185.81C143.783 187.28 143.258 189.425 143.258 192.245C143.258 194.675 143.768 196.565 144.788 197.915C145.808 199.265 147.233 199.94 149.063 199.94ZM187.214 199.445C188.174 199.445 188.654 199.85 188.654 200.66V201.785C188.654 202.595 188.174 203 187.214 203H183.659C183.179 203 182.774 202.85 182.444 202.55C182.144 202.22 181.994 201.815 181.994 201.335V197.96C181.334 199.55 180.314 200.87 178.934 201.92C177.584 202.94 176.144 203.45 174.614 203.45C172.154 203.45 170.324 202.625 169.124 200.975C167.954 199.325 167.369 196.79 167.369 193.37V184.055H166.199C165.239 184.055 164.759 183.65 164.759 182.84V181.715C164.759 180.905 165.239 180.5 166.199 180.5H169.844C170.264 180.5 170.624 180.665 170.924 180.995C171.254 181.295 171.419 181.685 171.419 182.165V192.74C171.419 194.57 171.539 195.995 171.779 197.015C172.049 198.035 172.484 198.785 173.084 199.265C173.714 199.715 174.554 199.94 175.604 199.94C176.684 199.94 177.719 199.58 178.709 198.86C179.699 198.14 180.494 197.195 181.094 196.025C181.694 194.825 181.994 193.58 181.994 192.29V184.055H180.824C179.834 184.055 179.339 183.65 179.339 182.84V181.715C179.339 180.905 179.834 180.5 180.824 180.5H184.424C184.904 180.5 185.294 180.665 185.594 180.995C185.894 181.295 186.044 181.685 186.044 182.165V199.445H187.214ZM212.847 190.625C212.847 190.775 212.802 191.435 212.712 192.605H196.737C196.887 194.885 197.547 196.685 198.717 198.005C199.887 199.295 201.447 199.94 203.397 199.94C204.717 199.94 205.767 199.73 206.547 199.31C207.327 198.89 208.062 198.14 208.752 197.06C208.992 196.7 209.217 196.445 209.427 196.295C209.667 196.145 209.937 196.07 210.237 196.07C210.687 196.07 211.077 196.22 211.407 196.52C211.767 196.79 211.947 197.135 211.947 197.555C211.947 198.125 211.737 198.71 211.317 199.31C210.447 200.72 209.367 201.77 208.077 202.46C206.787 203.12 205.182 203.45 203.262 203.45C201.132 203.45 199.257 202.955 197.637 201.965C196.047 200.975 194.802 199.58 193.902 197.78C193.032 195.98 192.597 193.91 192.597 191.57C192.597 189.26 193.032 187.235 193.902 185.495C194.772 183.755 196.002 182.42 197.592 181.49C199.182 180.53 201.027 180.05 203.127 180.05C206.037 180.05 208.377 180.98 210.147 182.84C211.947 184.7 212.847 187.295 212.847 190.625ZM203.037 183.38C201.267 183.38 199.842 183.92 198.762 185C197.712 186.05 197.067 187.58 196.827 189.59H208.752C208.722 185.45 206.817 183.38 203.037 183.38ZM249.304 199.445C250.264 199.445 250.744 199.85 250.744 200.66V201.785C250.744 202.595 250.264 203 249.304 203H245.704C245.254 203 244.864 202.85 244.534 202.55C244.234 202.22 244.084 201.815 244.084 201.335V198.5C243.514 199.91 242.524 201.095 241.114 202.055C239.734 202.985 238.264 203.45 236.704 203.45C234.604 203.45 232.909 202.85 231.619 201.65C230.329 200.42 229.684 198.8 229.684 196.79C229.684 194.69 230.389 193.07 231.799 191.93C233.239 190.79 235.279 190.22 237.919 190.22C239.929 190.22 241.984 190.46 244.084 190.94V188.915C244.084 187.055 243.649 185.675 242.779 184.775C241.909 183.875 240.559 183.425 238.729 183.425C237.319 183.425 236.269 183.695 235.579 184.235C235.789 184.595 235.894 184.985 235.894 185.405C235.894 186.095 235.654 186.68 235.174 187.16C234.694 187.64 234.109 187.88 233.419 187.88C232.609 187.88 231.964 187.625 231.484 187.115C231.004 186.605 230.764 185.915 230.764 185.045C230.764 183.575 231.529 182.375 233.059 181.445C234.589 180.515 236.539 180.05 238.909 180.05C241.879 180.05 244.144 180.845 245.704 182.435C247.294 184.025 248.089 186.275 248.089 189.185V199.445H249.304ZM237.649 200.165C238.789 200.165 239.839 199.865 240.799 199.265C241.789 198.635 242.569 197.81 243.139 196.79C243.739 195.74 244.054 194.6 244.084 193.37C242.734 193.16 240.874 193.055 238.504 193.055C235.264 193.055 233.644 194.255 233.644 196.655C233.644 197.765 234.004 198.635 234.724 199.265C235.444 199.865 236.419 200.165 237.649 200.165ZM276.205 209.795C277.195 209.795 277.69 210.2 277.69 211.01V212.135C277.69 212.945 277.195 213.35 276.205 213.35H269.86C268.87 213.35 268.375 212.945 268.375 212.135V211.01C268.375 210.2 268.87 209.795 269.86 209.795H271.03V198.5C270.49 199.91 269.515 201.095 268.105 202.055C266.725 202.985 265.255 203.45 263.695 203.45C261.895 203.45 260.305 202.985 258.925 202.055C257.575 201.125 256.525 199.805 255.775 198.095C255.055 196.355 254.695 194.33 254.695 192.02C254.695 188.3 255.565 185.375 257.305 183.245C259.075 181.115 261.49 180.05 264.55 180.05C265.87 180.05 267.115 180.38 268.285 181.04C269.485 181.67 270.49 182.57 271.3 183.74L271.48 181.715C271.57 180.785 272.065 180.32 272.965 180.32H273.46C273.94 180.32 274.315 180.455 274.585 180.725C274.885 180.995 275.035 181.4 275.035 181.94V209.795H276.205ZM264.595 199.94C265.765 199.94 266.845 199.625 267.835 198.995C268.825 198.335 269.605 197.45 270.175 196.34C270.745 195.23 271.03 194.015 271.03 192.695V186.845C270.19 185.795 269.245 184.985 268.195 184.415C267.175 183.845 266.095 183.56 264.955 183.56C262.945 183.56 261.415 184.31 260.365 185.81C259.315 187.28 258.79 189.425 258.79 192.245C258.79 194.675 259.3 196.565 260.32 197.915C261.34 199.265 262.765 199.94 264.595 199.94ZM302.747 199.445C303.707 199.445 304.187 199.85 304.187 200.66V201.785C304.187 202.595 303.707 203 302.747 203H299.192C298.712 203 298.307 202.85 297.977 202.55C297.677 202.22 297.527 201.815 297.527 201.335V197.96C296.867 199.55 295.847 200.87 294.467 201.92C293.117 202.94 291.677 203.45 290.147 203.45C287.687 203.45 285.857 202.625 284.657 200.975C283.487 199.325 282.902 196.79 282.902 193.37V184.055H281.732C280.772 184.055 280.292 183.65 280.292 182.84V181.715C280.292 180.905 280.772 180.5 281.732 180.5H285.377C285.797 180.5 286.157 180.665 286.457 180.995C286.787 181.295 286.952 181.685 286.952 182.165V192.74C286.952 194.57 287.072 195.995 287.312 197.015C287.582 198.035 288.017 198.785 288.617 199.265C289.247 199.715 290.087 199.94 291.137 199.94C292.217 199.94 293.252 199.58 294.242 198.86C295.232 198.14 296.027 197.195 296.627 196.025C297.227 194.825 297.527 193.58 297.527 192.29V184.055H296.357C295.367 184.055 294.872 183.65 294.872 182.84V181.715C294.872 180.905 295.367 180.5 296.357 180.5H299.957C300.437 180.5 300.827 180.665 301.127 180.995C301.427 181.295 301.577 181.685 301.577 182.165V199.445H302.747ZM311.864 176.135C311.024 176.135 310.319 175.85 309.749 175.28C309.179 174.71 308.894 174.005 308.894 173.165C308.894 172.325 309.179 171.635 309.749 171.095C310.319 170.525 311.024 170.24 311.864 170.24C312.704 170.24 313.394 170.525 313.934 171.095C314.504 171.635 314.789 172.325 314.789 173.165C314.789 174.005 314.504 174.71 313.934 175.28C313.394 175.85 312.704 176.135 311.864 176.135ZM309.389 203C308.429 203 307.949 202.595 307.949 201.785V200.66C307.949 199.85 308.429 199.445 309.389 199.445H310.559V184.055H309.389C308.429 184.055 307.949 183.65 307.949 182.84V181.715C307.949 180.905 308.429 180.5 309.389 180.5H312.944C313.424 180.5 313.814 180.665 314.114 180.995C314.444 181.295 314.609 181.685 314.609 182.165V199.445H315.779C316.769 199.445 317.264 199.85 317.264 200.66V201.785C317.264 202.595 316.769 203 315.779 203H309.389Z" fill="#B1470C"/>
<path d="M673.378 510.427L493.751 416.911L695.747 291.21L673.378 510.427Z" fill="#5FA329"/>
</svg>
